<svg xmlns="http://www.w3.org/2000/svg" viewBox="0 0 846 200" width="846" height="200" role="img" aria-labelledby="t">
<title id="t">Ram Gour</title>
<style>
  :root { --ink: #1f2328; --accent: #6a4ee0; }
  @media (prefers-color-scheme: dark) { :root { --ink: #f0f6fc; --accent: #a48cf2; } }
  .name { fill: var(--ink); }
  .row, .col { fill: none; stroke: var(--accent); stroke-linecap: round; stroke-linejoin: round; }
  .row { stroke-width: 1; stroke-dasharray: 1; animation: draw 1.6s cubic-bezier(.2,.7,.2,1) backwards; }
  .col { stroke-width: .6; animation: fade 1.4s ease-out 1.1s backwards; }
  @keyframes draw { from { stroke-dashoffset: 1; } to { stroke-dashoffset: 0; } }
  @keyframes fade { from { opacity: 0; } }
  @media (prefers-reduced-motion: reduce) { .row, .col { animation: none; } }
</style>
<defs>
  <linearGradient id="f" x1="0" x2="1" y1="0" y2="0">
    <stop offset=".33" stop-color="#fff" stop-opacity="0"/>
    <stop offset=".70" stop-color="#fff" stop-opacity="1"/>
    <stop offset=".93" stop-color="#fff" stop-opacity="1"/>
    <stop offset="1" stop-color="#fff" stop-opacity="0"/>
  </linearGradient>
  <mask id="m" maskUnits="userSpaceOnUse" x="0" y="0" width="846" height="200"><rect width="846" height="200" fill="url(#f)"/></mask>
</defs>
<g mask="url(#m)">
<g class="col" opacity=".28">
<path d="M-528.0 138.3 L-502.7 135.7 L-459.2 131.2 L-407.8 126.1 L-353.0 120.6 L-297.7 115.2 L-243.5 109.9 L-191.6 105.0 L-142.5 100.5 L-96.5 96.3 L-53.7 92.4 L-14.0 88.9 L22.7 85.7 L56.5 82.7 L87.8 80.0 L116.5 77.4 L143.1 75.0 L167.6 72.6 L190.2 70.3 L211.1 68.0 L230.5 65.7 L248.4 63.3 L265.1 60.9 L280.6 58.5 L295.0 55.9 L308.4 53.3 L321.0 50.6 L332.7 47.9 L343.6 45.1"/>
<path d="M-461.6 150.1 L-437.8 147.1 L-396.9 142.0 L-348.5 136.0 L-297.0 129.6 L-244.9 123.3 L-193.9 117.2 L-145.0 111.4 L-98.8 106.0 L-55.5 101.1 L-15.2 96.6 L22.1 92.5 L56.7 88.7 L88.5 85.3 L117.9 82.1 L145.0 79.2 L170.0 76.5 L193.0 73.9 L214.3 71.5 L234.0 69.1 L252.2 66.7 L269.1 64.3 L284.8 61.9 L299.4 59.4 L312.9 56.9 L325.6 54.3 L337.4 51.7 L348.4 48.9 L358.7 46.1"/>
<path d="M-395.3 163.6 L-373.0 160.1 L-334.6 154.1 L-289.3 147.1 L-240.9 139.6 L-192.1 132.1 L-144.3 124.9 L-98.5 118.0 L-55.1 111.6 L-14.5 105.7 L23.2 100.3 L58.3 95.4 L90.6 90.8 L120.5 86.7 L148.0 83.0 L173.4 79.5 L196.8 76.4 L218.4 73.4 L238.4 70.6 L256.9 68.0 L273.9 65.5 L289.8 63.0 L304.5 60.5 L318.1 58.1 L330.9 55.6 L342.7 53.1 L353.8 50.5 L364.1 47.9 L373.8 45.2"/>
<path d="M-328.9 175.6 L-308.1 171.6 L-272.3 164.8 L-230.0 156.8 L-184.9 148.3 L-139.3 139.7 L-94.7 131.4 L-51.9 123.5 L-11.4 116.0 L26.4 109.1 L61.7 102.7 L94.4 96.9 L124.6 91.5 L152.5 86.7 L178.2 82.2 L201.9 78.2 L223.7 74.5 L243.9 71.1 L262.5 67.9 L279.7 65.0 L295.7 62.2 L310.5 59.6 L324.2 57.1 L336.9 54.6 L348.8 52.2 L359.9 49.8 L370.2 47.4 L379.8 45.0 L388.9 42.5"/>
<path d="M-262.6 184.8 L-243.2 180.5 L-210.0 173.0 L-170.7 164.2 L-128.8 154.9 L-86.5 145.4 L-45.0 136.2 L-5.3 127.3 L32.2 119.0 L67.4 111.2 L100.1 103.9 L130.5 97.3 L158.5 91.2 L184.4 85.6 L208.3 80.5 L230.3 75.8 L250.6 71.6 L269.3 67.7 L286.6 64.1 L302.6 60.9 L317.4 57.9 L331.1 55.1 L343.9 52.5 L355.7 50.0 L366.7 47.7 L377.0 45.4 L386.6 43.2 L395.6 41.0 L404.0 38.9"/>
<path d="M-196.2 191.7 L-178.4 187.2 L-147.7 179.3 L-111.4 170.0 L-72.7 160.1 L-33.7 150.0 L4.6 140.1 L41.2 130.6 L75.9 121.5 L108.4 113.0 L138.6 105.1 L166.6 97.8 L192.5 91.0 L216.4 84.8 L238.4 79.1 L258.7 73.9 L277.5 69.1 L294.8 64.7 L310.7 60.8 L325.5 57.1 L339.2 53.8 L351.8 50.8 L363.6 48.1 L374.5 45.5 L384.7 43.2 L394.2 41.0 L403.0 38.9 L411.3 37.0 L419.0 35.1"/>
<path d="M-129.9 198.2 L-113.5 193.5 L-85.4 185.4 L-52.1 175.8 L-16.7 165.4 L19.1 154.9 L54.2 144.6 L87.8 134.6 L119.6 125.1 L149.3 116.0 L177.0 107.6 L202.7 99.7 L226.5 92.4 L248.4 85.6 L268.5 79.4 L287.2 73.6 L304.3 68.3 L320.2 63.4 L334.8 59.0 L348.4 55.0 L360.9 51.3 L372.5 48.0 L383.3 45.0 L393.3 42.2 L402.6 39.8 L411.3 37.6 L419.4 35.6 L427.0 33.7 L434.1 32.1"/>
<path d="M-63.5 205.6 L-48.6 200.8 L-23.1 192.5 L7.2 182.6 L39.4 172.0 L71.9 161.2 L103.8 150.6 L134.4 140.2 L163.3 130.3 L190.3 120.9 L215.5 112.0 L238.8 103.6 L260.4 95.8 L280.3 88.5 L298.7 81.8 L315.6 75.5 L331.2 69.7 L345.6 64.3 L358.9 59.4 L371.2 54.9 L382.6 50.8 L393.2 47.0 L403.0 43.7 L412.1 40.7 L420.6 38.0 L428.5 35.6 L435.9 33.5 L442.7 31.6 L449.2 29.9"/>
<path d="M2.8 213.6 L16.2 208.7 L39.2 200.3 L66.4 190.2 L95.5 179.4 L124.8 168.4 L153.4 157.4 L180.9 146.8 L206.9 136.5 L231.3 126.8 L253.9 117.5 L275.0 108.8 L294.4 100.6 L312.3 92.9 L328.8 85.7 L344.0 79.0 L358.1 72.7 L371.1 66.9 L383.0 61.4 L394.1 56.5 L404.4 51.9 L413.9 47.7 L422.7 43.9 L430.9 40.5 L438.5 37.4 L445.6 34.7 L452.3 32.4 L458.5 30.3 L464.3 28.5"/>
<path d="M69.2 220.0 L81.1 215.1 L101.5 206.6 L125.7 196.4 L151.5 185.4 L177.6 174.2 L203.1 163.1 L227.5 152.3 L250.6 141.9 L272.2 131.9 L292.4 122.5 L311.1 113.5 L328.3 105.1 L344.3 97.1 L358.9 89.6 L372.5 82.5 L385.0 75.9 L396.5 69.7 L407.1 63.9 L417.0 58.5 L426.1 53.5 L434.6 48.9 L442.4 44.7 L449.7 40.9 L456.5 37.5 L462.8 34.4 L468.7 31.7 L474.2 29.4 L479.4 27.4"/>
<path d="M135.5 221.9 L145.9 216.9 L163.8 208.4 L185.0 198.2 L207.6 187.3 L230.4 176.1 L252.7 165.0 L274.1 154.2 L294.3 143.8 L313.2 133.9 L330.8 124.4 L347.2 115.5 L362.3 107.0 L376.2 99.0 L389.1 91.4 L400.9 84.3 L411.9 77.5 L421.9 71.2 L431.3 65.2 L439.9 59.6 L447.8 54.4 L455.2 49.6 L462.1 45.1 L468.5 41.0 L474.4 37.3 L479.9 34.0 L485.1 31.0 L489.9 28.4 L494.4 26.2"/>
<path d="M201.9 216.6 L210.8 211.7 L226.1 203.4 L244.3 193.4 L263.6 182.8 L283.2 171.9 L302.3 161.1 L320.6 150.6 L338.0 140.5 L354.2 131.0 L369.3 121.8 L383.3 113.2 L396.2 105.1 L408.2 97.3 L419.2 90.0 L429.4 83.1 L438.7 76.6 L447.4 70.4 L455.4 64.6 L462.7 59.1 L469.6 53.9 L475.9 49.1 L481.8 44.6 L487.3 40.4 L492.3 36.6 L497.1 33.2 L501.5 30.1 L505.6 27.4 L509.5 25.0"/>
<path d="M268.2 203.9 L275.7 199.3 L288.5 191.3 L303.6 181.9 L319.7 171.7 L336.0 161.4 L351.9 151.2 L367.2 141.4 L381.6 132.0 L395.2 123.0 L407.7 114.6 L419.4 106.6 L430.2 99.0 L440.2 91.9 L449.3 85.2 L457.8 78.9 L465.6 72.9 L472.8 67.2 L479.5 61.8 L485.6 56.7 L491.3 51.9 L496.6 47.4 L501.5 43.2 L506.0 39.3 L510.3 35.6 L514.2 32.3 L517.9 29.2 L521.4 26.5 L524.6 24.2"/>
<path d="M334.6 186.3 L340.5 182.0 L350.8 174.6 L362.9 165.7 L375.8 156.3 L388.8 146.8 L401.5 137.4 L413.7 128.4 L425.3 119.8 L436.1 111.7 L446.2 104.1 L455.5 97.0 L464.2 90.3 L472.1 84.0 L479.5 78.1 L486.2 72.6 L492.5 67.4 L498.3 62.5 L503.6 57.8 L508.5 53.4 L513.1 49.2 L517.3 45.3 L521.2 41.6 L524.8 38.1 L528.2 34.8 L531.4 31.8 L534.3 29.1 L537.1 26.5 L539.7 24.3"/>
<path d="M400.9 168.1 L405.4 164.1 L413.1 157.2 L422.1 149.0 L431.8 140.3 L441.6 131.5 L451.1 122.9 L460.3 114.7 L469.0 107.0 L477.1 99.7 L484.6 93.0 L491.7 86.7 L498.1 80.9 L504.1 75.6 L509.6 70.6 L514.7 65.9 L519.4 61.6 L523.7 57.5 L527.7 53.7 L531.4 50.1 L534.8 46.7 L538.0 43.5 L540.9 40.5 L543.6 37.6 L546.2 34.9 L548.5 32.3 L550.8 30.0 L552.8 27.8 L554.8 25.8"/>
<path d="M467.3 153.8 L470.3 149.9 L475.4 143.3 L481.4 135.6 L487.9 127.4 L494.4 119.1 L500.8 111.1 L506.9 103.5 L512.7 96.4 L518.1 89.8 L523.1 83.7 L527.8 78.2 L532.1 73.1 L536.1 68.5 L539.7 64.2 L543.1 60.4 L546.2 56.8 L549.1 53.5 L551.8 50.5 L554.2 47.7 L556.5 45.0 L558.6 42.5 L560.6 40.2 L562.4 38.0 L564.1 35.9 L565.7 33.8 L567.2 31.9 L568.5 30.1 L569.8 28.4"/>
<path d="M533.6 146.0 L535.1 142.2 L537.7 135.7 L540.7 128.1 L543.9 120.0 L547.2 111.9 L550.4 104.1 L553.4 96.7 L556.3 89.8 L559.0 83.5 L561.5 77.8 L563.9 72.6 L566.0 67.9 L568.0 63.7 L569.9 60.0 L571.6 56.6 L573.1 53.6 L574.6 50.9 L575.9 48.5 L577.1 46.3 L578.3 44.2 L579.3 42.4 L580.3 40.6 L581.2 39.0 L582.1 37.4 L582.8 35.9 L583.6 34.4 L584.3 33.0 L584.9 31.7"/>
<path d="M600.0 144.9 L600.0 141.0 L600.0 134.3 L600.0 126.4 L600.0 118.1 L600.0 109.8 L600.0 101.8 L600.0 94.2 L600.0 87.3 L600.0 80.9 L600.0 75.1 L600.0 69.9 L600.0 65.3 L600.0 61.2 L600.0 57.6 L600.0 54.5 L600.0 51.7 L600.0 49.3 L600.0 47.2 L600.0 45.4 L600.0 43.8 L600.0 42.3 L600.0 41.0 L600.0 39.8 L600.0 38.7 L600.0 37.6 L600.0 36.6 L600.0 35.5 L600.0 34.5"/>
<path d="M666.4 147.9 L664.9 143.7 L662.3 136.7 L659.3 128.5 L656.1 119.7 L652.8 111.0 L649.6 102.6 L646.6 94.7 L643.7 87.3 L641.0 80.6 L638.5 74.5 L636.1 69.1 L634.0 64.3 L632.0 60.0 L630.1 56.3 L628.4 53.1 L626.9 50.4 L625.4 48.1 L624.1 46.1 L622.9 44.4 L621.7 43.0 L620.7 41.8 L619.7 40.8 L618.8 39.9 L617.9 39.1 L617.2 38.3 L616.4 37.6 L615.7 36.9 L615.1 36.1"/>
<path d="M732.7 151.5 L729.7 147.2 L724.6 139.9 L718.6 131.3 L712.1 122.2 L705.6 113.0 L699.2 104.2 L693.1 95.9 L687.3 88.1 L681.9 81.0 L676.9 74.6 L672.2 68.8 L667.9 63.7 L663.9 59.2 L660.3 55.3 L656.9 51.9 L653.8 49.0 L650.9 46.5 L648.2 44.5 L645.8 42.8 L643.5 41.5 L641.4 40.4 L639.4 39.5 L637.6 38.8 L635.9 38.2 L634.3 37.7 L632.8 37.2 L631.5 36.7 L630.2 36.2"/>
<path d="M799.1 153.0 L794.6 148.6 L786.9 141.2 L777.9 132.5 L768.2 123.3 L758.4 114.0 L748.9 105.0 L739.7 96.4 L731.0 88.4 L722.9 81.1 L715.4 74.4 L708.3 68.4 L701.9 63.1 L695.9 58.3 L690.4 54.2 L685.3 50.6 L680.6 47.5 L676.3 44.9 L672.3 42.7 L668.6 41.0 L665.2 39.5 L662.0 38.4 L659.1 37.6 L656.4 36.9 L653.8 36.4 L651.5 36.1 L649.2 35.8 L647.2 35.5 L645.2 35.3"/>
<path d="M865.4 151.6 L859.5 147.4 L849.2 140.2 L837.1 131.7 L824.2 122.6 L811.2 113.5 L798.5 104.7 L786.3 96.2 L774.7 88.3 L763.9 81.0 L753.8 74.3 L744.5 68.3 L735.8 62.8 L727.9 58.0 L720.5 53.7 L713.8 50.0 L707.5 46.7 L701.7 43.9 L696.4 41.6 L691.5 39.7 L686.9 38.1 L682.7 36.9 L678.8 36.0 L675.2 35.3 L671.8 34.8 L668.6 34.5 L665.7 34.2 L662.9 34.1 L660.3 34.0"/>
<path d="M931.8 148.8 L924.3 144.9 L911.5 138.1 L896.4 130.1 L880.3 121.5 L864.0 112.9 L848.1 104.5 L832.8 96.4 L818.4 88.9 L804.8 81.8 L792.3 75.3 L780.6 69.4 L769.8 64.1 L759.8 59.2 L750.7 54.9 L742.2 51.1 L734.4 47.7 L727.2 44.8 L720.5 42.3 L714.4 40.2 L708.7 38.4 L703.4 37.0 L698.5 35.9 L694.0 35.0 L689.7 34.3 L685.8 33.9 L682.1 33.6 L678.6 33.4 L675.4 33.3"/>
<path d="M998.1 146.9 L989.2 143.3 L973.9 137.1 L955.7 129.7 L936.4 121.8 L916.8 113.8 L897.7 106.0 L879.4 98.5 L862.0 91.4 L845.8 84.8 L830.7 78.6 L816.7 72.9 L803.8 67.7 L791.8 63.0 L780.8 58.7 L770.6 54.8 L761.3 51.3 L752.6 48.3 L744.6 45.5 L737.3 43.2 L730.4 41.1 L724.1 39.4 L718.2 37.9 L712.7 36.7 L707.7 35.8 L702.9 35.0 L698.5 34.4 L694.4 34.0 L690.5 33.7"/>
<path d="M1064.5 147.8 L1054.1 144.5 L1036.2 138.8 L1015.0 132.0 L992.4 124.7 L969.6 117.3 L947.3 110.1 L925.9 103.1 L905.7 96.5 L886.8 90.3 L869.2 84.4 L852.8 79.0 L837.7 74.0 L823.8 69.4 L810.9 65.1 L799.1 61.2 L788.1 57.6 L778.1 54.3 L768.7 51.3 L760.1 48.6 L752.2 46.2 L744.8 44.0 L737.9 42.1 L731.5 40.5 L725.6 39.1 L720.1 37.8 L714.9 36.8 L710.1 35.9 L705.6 35.2"/>
<path d="M1130.8 151.6 L1118.9 148.5 L1098.5 143.1 L1074.3 136.7 L1048.5 129.9 L1022.4 123.0 L996.9 116.2 L972.5 109.7 L949.4 103.4 L927.8 97.5 L907.6 92.0 L888.9 86.8 L871.7 81.9 L855.7 77.3 L841.1 73.0 L827.5 69.0 L815.0 65.3 L803.5 61.8 L792.9 58.5 L783.0 55.5 L773.9 52.6 L765.4 50.0 L757.6 47.6 L750.3 45.4 L743.5 43.4 L737.2 41.6 L731.3 40.0 L725.8 38.5 L720.6 37.2"/>
<path d="M1197.2 156.5 L1183.8 153.5 L1160.8 148.3 L1133.6 142.2 L1104.5 135.7 L1075.2 129.1 L1046.6 122.6 L1019.1 116.3 L993.1 110.3 L968.7 104.6 L946.1 99.3 L925.0 94.2 L905.6 89.4 L887.7 84.9 L871.2 80.6 L856.0 76.6 L841.9 72.7 L828.9 69.0 L817.0 65.5 L805.9 62.2 L795.6 59.0 L786.1 55.9 L777.3 53.1 L769.1 50.3 L761.5 47.7 L754.4 45.3 L747.7 43.1 L741.5 41.0 L735.7 39.0"/>
<path d="M1263.5 159.8 L1248.6 156.8 L1223.1 151.8 L1192.8 145.8 L1160.6 139.5 L1128.1 133.0 L1096.2 126.7 L1065.6 120.6 L1036.7 114.8 L1009.7 109.4 L984.5 104.2 L961.2 99.3 L939.6 94.6 L919.7 90.2 L901.3 86.0 L884.4 82.0 L868.8 78.1 L854.4 74.3 L841.1 70.7 L828.8 67.2 L817.4 63.8 L806.8 60.4 L797.0 57.2 L787.9 54.1 L779.4 51.0 L771.5 48.1 L764.1 45.4 L757.3 42.7 L750.8 40.2"/>
<path d="M1329.9 159.7 L1313.5 156.8 L1285.4 151.8 L1252.1 145.9 L1216.7 139.7 L1180.9 133.4 L1145.8 127.3 L1112.2 121.3 L1080.4 115.7 L1050.7 110.4 L1023.0 105.5 L997.3 100.8 L973.5 96.3 L951.6 92.1 L931.5 88.1 L912.8 84.2 L895.7 80.4 L879.8 76.8 L865.2 73.2 L851.6 69.7 L839.1 66.2 L827.5 62.8 L816.7 59.4 L806.7 56.1 L797.4 52.8 L788.7 49.6 L780.6 46.5 L773.0 43.5 L765.9 40.6"/>
<path d="M1396.2 156.3 L1378.4 153.5 L1347.7 148.5 L1311.4 142.7 L1272.7 136.6 L1233.7 130.4 L1195.4 124.4 L1158.8 118.7 L1124.1 113.2 L1091.6 108.1 L1061.4 103.4 L1033.4 98.9 L1007.5 94.7 L983.6 90.8 L961.6 87.0 L941.3 83.4 L922.5 79.9 L905.2 76.4 L889.3 73.1 L874.5 69.8 L860.8 66.5 L848.2 63.2 L836.4 59.9 L825.5 56.6 L815.3 53.3 L805.8 50.0 L797.0 46.8 L788.7 43.6 L781.0 40.5"/>
<path d="M1462.6 152.1 L1443.2 149.2 L1410.0 144.3 L1370.7 138.5 L1328.8 132.3 L1286.5 126.2 L1245.0 120.2 L1205.3 114.5 L1167.8 109.2 L1132.6 104.3 L1099.9 99.6 L1069.5 95.4 L1041.5 91.4 L1015.6 87.6 L991.7 84.1 L969.7 80.8 L949.4 77.6 L930.7 74.4 L913.4 71.3 L897.4 68.3 L882.6 65.3 L868.9 62.2 L856.1 59.2 L844.3 56.1 L833.3 53.0 L823.0 49.8 L813.4 46.7 L804.4 43.6 L796.0 40.4"/>
<path d="M1528.9 150.7 L1508.1 147.7 L1472.3 142.5 L1430.0 136.5 L1384.9 130.2 L1339.3 123.8 L1294.7 117.6 L1251.9 111.8 L1211.4 106.4 L1173.6 101.3 L1138.3 96.6 L1105.6 92.3 L1075.4 88.4 L1047.5 84.7 L1021.8 81.3 L998.1 78.0 L976.3 75.0 L956.1 72.1 L937.5 69.2 L920.3 66.4 L904.3 63.7 L889.5 60.9 L875.8 58.1 L863.1 55.3 L851.2 52.5 L840.1 49.6 L829.8 46.6 L820.2 43.7 L811.1 40.7"/>
<path d="M1595.3 155.1 L1573.0 151.8 L1534.6 146.3 L1489.3 139.7 L1440.9 132.8 L1392.1 125.9 L1344.3 119.2 L1298.5 112.8 L1255.1 106.8 L1214.5 101.3 L1176.8 96.3 L1141.7 91.6 L1109.4 87.3 L1079.5 83.4 L1052.0 79.8 L1026.6 76.5 L1003.2 73.4 L981.6 70.5 L961.6 67.7 L943.1 65.0 L926.1 62.3 L910.2 59.7 L895.5 57.2 L881.9 54.6 L869.1 52.0 L857.3 49.3 L846.2 46.6 L835.9 43.9 L826.2 41.1"/>
<path d="M1661.6 166.3 L1637.8 162.7 L1596.9 156.4 L1548.5 149.0 L1497.0 141.1 L1444.9 133.2 L1393.9 125.6 L1345.0 118.2 L1298.8 111.4 L1255.5 105.0 L1215.2 99.2 L1177.9 93.8 L1143.3 88.9 L1111.5 84.4 L1082.1 80.3 L1055.0 76.5 L1030.0 73.0 L1007.0 69.8 L985.7 66.8 L966.0 64.0 L947.8 61.3 L930.9 58.7 L915.2 56.1 L900.6 53.7 L887.1 51.2 L874.4 48.7 L862.6 46.2 L851.6 43.7 L841.3 41.2"/>
<path d="M1728.0 182.4 L1702.7 178.3 L1659.2 171.1 L1607.8 162.6 L1553.0 153.5 L1497.7 144.4 L1443.5 135.5 L1391.6 126.9 L1342.5 118.9 L1296.5 111.4 L1253.7 104.5 L1214.0 98.1 L1177.3 92.2 L1143.5 86.8 L1112.2 81.9 L1083.5 77.5 L1056.9 73.4 L1032.4 69.6 L1009.8 66.1 L988.9 62.9 L969.5 59.9 L951.6 57.2 L934.9 54.5 L919.4 52.0 L905.0 49.5 L891.6 47.2 L879.0 44.8 L867.3 42.5 L856.4 40.2"/>
</g>
<path class="row" pathLength="1" opacity="0.92" style="animation-delay:0ms" d="M-528.0 138.3 L-499.8 142.9 L-471.6 148.1 L-443.4 153.8 L-415.2 159.6 L-387.0 165.2 L-358.8 170.5 L-330.6 175.3 L-302.4 179.6 L-274.2 183.4 L-246.0 186.7 L-217.8 189.6 L-189.6 192.4 L-161.4 195.1 L-133.2 197.9 L-105.0 200.8 L-76.8 204.0 L-48.6 207.4 L-20.4 210.8 L7.8 214.1 L36.0 217.2 L64.2 219.7 L92.4 221.4 L120.6 222.0 L148.8 221.4 L177.0 219.5 L205.2 216.1 L233.4 211.4 L261.6 205.5 L289.8 198.6 L318.0 191.0 L346.2 183.1 L374.4 175.2 L402.6 167.7 L430.8 161.0 L459.0 155.2 L487.2 150.7 L515.4 147.5 L543.6 145.5 L571.8 144.7 L600.0 144.9 L628.2 145.8 L656.4 147.3 L684.6 148.9 L712.8 150.5 L741.0 151.8 L769.2 152.6 L797.4 153.0 L825.6 152.7 L853.8 152.0 L882.0 151.0 L910.2 149.7 L938.4 148.6 L966.6 147.6 L994.8 147.0 L1023.0 146.9 L1051.2 147.4 L1079.4 148.5 L1107.6 150.0 L1135.8 152.0 L1164.0 154.1 L1192.2 156.1 L1220.4 157.9 L1248.6 159.3 L1276.8 160.1 L1305.0 160.2 L1333.2 159.6 L1361.4 158.4 L1389.6 156.8 L1417.8 154.9 L1446.0 153.1 L1474.2 151.5 L1502.4 150.7 L1530.6 150.7 L1558.8 151.8 L1587.0 154.2 L1615.2 157.8 L1643.4 162.6 L1671.6 168.5 L1699.8 175.2 L1728.0 182.4"/>
<path class="row" pathLength="1" opacity="0.91" style="animation-delay:55ms" d="M-483.5 133.7 L-456.4 138.0 L-429.3 143.0 L-402.3 148.3 L-375.2 153.7 L-348.1 159.0 L-321.0 163.9 L-293.9 168.4 L-266.8 172.4 L-239.7 175.9 L-212.6 178.9 L-185.6 181.7 L-158.5 184.3 L-131.4 186.9 L-104.3 189.6 L-77.2 192.5 L-50.1 195.6 L-23.0 198.9 L4.1 202.3 L31.2 205.5 L58.2 208.5 L85.3 211.0 L112.4 212.6 L139.5 213.3 L166.6 212.7 L193.7 210.8 L220.8 207.6 L247.9 203.0 L274.9 197.3 L302.0 190.6 L329.1 183.2 L356.2 175.5 L383.3 167.9 L410.4 160.6 L437.5 154.1 L464.6 148.5 L491.6 144.0 L518.7 140.8 L545.8 138.8 L572.9 137.9 L600.0 138.0 L627.1 138.8 L654.2 140.1 L681.3 141.6 L708.4 143.1 L735.4 144.3 L762.5 145.1 L789.6 145.4 L816.7 145.2 L843.8 144.6 L870.9 143.7 L898.0 142.6 L925.1 141.7 L952.1 140.9 L979.2 140.6 L1006.3 140.7 L1033.4 141.4 L1060.5 142.7 L1087.6 144.4 L1114.7 146.5 L1141.8 148.7 L1168.8 150.8 L1195.9 152.7 L1223.0 154.1 L1250.1 154.9 L1277.2 155.1 L1304.3 154.5 L1331.4 153.3 L1358.5 151.7 L1385.6 149.8 L1412.6 148.0 L1439.7 146.5 L1466.8 145.5 L1493.9 145.4 L1521.0 146.4 L1548.1 148.5 L1575.2 151.9 L1602.3 156.4 L1629.3 161.9 L1656.4 168.3 L1683.5 175.1"/>
<path class="row" pathLength="1" opacity="0.89" style="animation-delay:110ms" d="M-410.6 126.3 L-385.4 130.2 L-360.1 134.6 L-334.8 139.4 L-309.6 144.1 L-284.3 148.8 L-259.1 153.1 L-233.8 157.0 L-208.5 160.5 L-183.3 163.6 L-158.0 166.3 L-132.7 168.7 L-107.5 171.1 L-82.2 173.5 L-56.9 176.0 L-31.7 178.7 L-6.4 181.7 L18.9 184.9 L44.1 188.1 L69.4 191.3 L94.7 194.2 L119.9 196.6 L145.2 198.2 L170.5 198.9 L195.7 198.4 L221.0 196.6 L246.3 193.5 L271.5 189.2 L296.8 183.8 L322.1 177.5 L347.3 170.5 L372.6 163.2 L397.9 155.9 L423.1 149.0 L448.4 142.8 L473.7 137.4 L498.9 133.1 L524.2 129.9 L549.5 127.9 L574.7 126.9 L600.0 126.8 L625.3 127.4 L650.5 128.5 L675.8 129.7 L701.1 131.0 L726.3 132.0 L751.6 132.7 L776.9 133.0 L802.1 132.9 L827.4 132.4 L852.7 131.8 L877.9 131.0 L903.2 130.4 L928.5 130.0 L953.7 130.0 L979.0 130.6 L1004.3 131.7 L1029.5 133.2 L1054.8 135.2 L1080.1 137.5 L1105.3 139.9 L1130.6 142.2 L1155.9 144.1 L1181.1 145.6 L1206.4 146.5 L1231.7 146.7 L1256.9 146.2 L1282.2 145.1 L1307.5 143.5 L1332.7 141.6 L1358.0 139.8 L1383.3 138.2 L1408.5 137.1 L1433.8 136.9 L1459.1 137.6 L1484.3 139.4 L1509.6 142.3 L1534.8 146.3 L1560.1 151.2 L1585.4 156.9 L1610.6 163.0"/>
<path class="row" pathLength="1" opacity="0.87" style="animation-delay:165ms" d="M-329.7 118.3 L-306.4 121.7 L-283.2 125.5 L-260.0 129.6 L-236.7 133.6 L-213.5 137.6 L-190.2 141.2 L-167.0 144.5 L-143.7 147.4 L-120.5 149.9 L-97.3 152.2 L-74.0 154.3 L-50.8 156.3 L-27.5 158.4 L-4.3 160.7 L18.9 163.3 L42.2 166.1 L65.4 169.1 L88.7 172.2 L111.9 175.3 L135.2 178.1 L158.4 180.4 L181.6 182.0 L204.9 182.6 L228.1 182.2 L251.4 180.6 L274.6 177.8 L297.9 173.8 L321.1 168.7 L344.3 162.8 L367.6 156.3 L390.8 149.5 L414.1 142.7 L437.3 136.2 L460.5 130.3 L483.8 125.2 L507.0 121.1 L530.3 118.0 L553.5 115.9 L576.8 114.8 L600.0 114.6 L623.2 114.9 L646.5 115.7 L669.7 116.7 L693.0 117.7 L716.2 118.5 L739.5 119.1 L762.7 119.3 L785.9 119.3 L809.2 119.0 L832.4 118.5 L855.7 118.1 L878.9 117.8 L902.1 117.9 L925.4 118.3 L948.6 119.3 L971.9 120.7 L995.1 122.7 L1018.4 125.0 L1041.6 127.5 L1064.8 130.1 L1088.1 132.5 L1111.3 134.6 L1134.6 136.2 L1157.8 137.1 L1181.1 137.4 L1204.3 137.0 L1227.5 135.9 L1250.8 134.4 L1274.0 132.6 L1297.3 130.7 L1320.5 129.1 L1343.7 127.9 L1367.0 127.5 L1390.2 127.9 L1413.5 129.3 L1436.7 131.7 L1460.0 135.1 L1483.2 139.4 L1506.4 144.3 L1529.7 149.7"/>
<path class="row" pathLength="1" opacity="0.85" style="animation-delay:220ms" d="M-249.1 110.5 L-227.9 113.4 L-206.7 116.6 L-185.4 120.0 L-164.2 123.4 L-143.0 126.6 L-121.8 129.5 L-100.5 132.1 L-79.3 134.4 L-58.1 136.4 L-36.8 138.1 L-15.6 139.8 L5.6 141.5 L26.8 143.3 L48.1 145.4 L69.3 147.7 L90.5 150.4 L111.8 153.2 L133.0 156.1 L154.2 159.1 L175.4 161.7 L196.7 163.9 L217.9 165.5 L239.1 166.2 L260.4 165.9 L281.6 164.4 L302.8 161.8 L324.0 158.2 L345.3 153.5 L366.5 148.1 L387.7 142.1 L408.9 135.8 L430.2 129.5 L451.4 123.4 L472.6 118.0 L493.9 113.2 L515.1 109.3 L536.3 106.3 L557.5 104.2 L578.8 103.1 L600.0 102.6 L621.2 102.7 L642.5 103.2 L663.7 103.9 L684.9 104.7 L706.1 105.3 L727.4 105.7 L748.6 105.9 L769.8 105.9 L791.1 105.7 L812.3 105.5 L833.5 105.3 L854.7 105.4 L876.0 105.8 L897.2 106.7 L918.4 108.0 L939.6 109.8 L960.9 112.1 L982.1 114.7 L1003.3 117.4 L1024.6 120.2 L1045.8 122.8 L1067.0 125.0 L1088.2 126.7 L1109.5 127.8 L1130.7 128.2 L1151.9 127.8 L1173.2 126.9 L1194.4 125.4 L1215.6 123.7 L1236.8 121.8 L1258.1 120.2 L1279.3 118.9 L1300.5 118.3 L1321.8 118.4 L1343.0 119.4 L1364.2 121.3 L1385.4 124.1 L1406.7 127.7 L1427.9 131.8 L1449.1 136.4"/>
<path class="row" pathLength="1" opacity="0.82" style="animation-delay:275ms" d="M-173.1 103.3 L-153.8 105.7 L-134.5 108.4 L-115.2 111.1 L-95.8 113.8 L-76.5 116.3 L-57.2 118.6 L-37.8 120.5 L-18.5 122.2 L0.8 123.6 L20.1 124.9 L39.5 126.2 L58.8 127.5 L78.1 129.0 L97.5 130.8 L116.8 132.9 L136.1 135.3 L155.4 137.9 L174.8 140.7 L194.1 143.4 L213.4 146.0 L232.8 148.1 L252.1 149.6 L271.4 150.3 L290.7 150.1 L310.1 148.8 L329.4 146.5 L348.7 143.2 L368.1 139.0 L387.4 134.0 L406.7 128.5 L426.0 122.8 L445.4 117.0 L464.7 111.5 L484.0 106.4 L503.4 102.0 L522.7 98.3 L542.0 95.5 L561.3 93.5 L580.7 92.2 L600.0 91.6 L619.3 91.5 L638.7 91.7 L658.0 92.2 L677.3 92.6 L696.6 93.0 L716.0 93.3 L735.3 93.4 L754.6 93.4 L774.0 93.3 L793.3 93.2 L812.6 93.3 L831.9 93.7 L851.3 94.4 L870.6 95.6 L889.9 97.3 L909.3 99.5 L928.6 102.0 L947.9 104.9 L967.2 107.9 L986.6 110.8 L1005.9 113.6 L1025.2 115.9 L1044.6 117.8 L1063.9 118.9 L1083.2 119.4 L1102.5 119.2 L1121.9 118.3 L1141.2 117.0 L1160.5 115.3 L1179.9 113.5 L1199.2 111.9 L1218.5 110.5 L1237.8 109.7 L1257.2 109.6 L1276.5 110.2 L1295.8 111.7 L1315.2 113.9 L1334.5 116.8 L1353.8 120.2 L1373.1 123.9"/>
<path class="row" pathLength="1" opacity="0.79" style="animation-delay:330ms" d="M-103.5 96.9 L-85.9 98.9 L-68.3 101.1 L-50.8 103.2 L-33.2 105.3 L-15.6 107.2 L2.0 108.8 L19.6 110.1 L37.2 111.1 L54.8 112.0 L72.4 112.8 L89.9 113.6 L107.5 114.6 L125.1 115.8 L142.7 117.2 L160.3 119.1 L177.9 121.2 L195.5 123.6 L213.1 126.2 L230.7 128.7 L248.2 131.1 L265.8 133.2 L283.4 134.6 L301.0 135.4 L318.6 135.2 L336.2 134.2 L353.8 132.1 L371.4 129.2 L388.9 125.4 L406.5 120.9 L424.1 116.0 L441.7 110.8 L459.3 105.6 L476.9 100.5 L494.5 95.9 L512.1 91.9 L529.6 88.5 L547.2 85.8 L564.8 83.9 L582.4 82.6 L600.0 81.8 L617.6 81.5 L635.2 81.5 L652.8 81.7 L670.4 81.9 L687.9 82.1 L705.5 82.2 L723.1 82.2 L740.7 82.2 L758.3 82.1 L775.9 82.2 L793.5 82.5 L811.1 83.1 L828.6 84.1 L846.2 85.6 L863.8 87.5 L881.4 89.9 L899.0 92.8 L916.6 95.8 L934.2 99.0 L951.8 102.1 L969.3 105.0 L986.9 107.5 L1004.5 109.4 L1022.1 110.7 L1039.7 111.3 L1057.3 111.2 L1074.9 110.5 L1092.5 109.3 L1110.1 107.7 L1127.6 106.0 L1145.2 104.4 L1162.8 103.0 L1180.4 102.0 L1198.0 101.7 L1215.6 102.0 L1233.2 102.9 L1250.8 104.6 L1268.3 106.9 L1285.9 109.6 L1303.5 112.5"/>
<path class="row" pathLength="1" opacity="0.75" style="animation-delay:385ms" d="M-40.8 91.3 L-24.8 92.9 L-8.8 94.6 L7.3 96.3 L23.3 97.8 L39.3 99.0 L55.3 100.0 L71.3 100.8 L87.4 101.3 L103.4 101.7 L119.4 102.0 L135.4 102.4 L151.4 102.9 L167.5 103.7 L183.5 104.9 L199.5 106.4 L215.5 108.3 L231.5 110.4 L247.6 112.8 L263.6 115.2 L279.6 117.4 L295.6 119.3 L311.6 120.7 L327.7 121.5 L343.7 121.4 L359.7 120.6 L375.7 118.8 L391.7 116.2 L407.8 112.9 L423.8 108.9 L439.8 104.5 L455.8 99.9 L471.8 95.2 L487.9 90.7 L503.9 86.6 L519.9 82.9 L535.9 79.8 L551.9 77.3 L568.0 75.5 L584.0 74.2 L600.0 73.4 L616.0 72.9 L632.0 72.8 L648.1 72.7 L664.1 72.7 L680.1 72.7 L696.1 72.6 L712.1 72.5 L728.2 72.4 L744.2 72.3 L760.2 72.5 L776.2 72.9 L792.2 73.6 L808.3 74.8 L824.3 76.5 L840.3 78.7 L856.3 81.3 L872.3 84.3 L888.4 87.6 L904.4 90.9 L920.4 94.1 L936.4 97.1 L952.4 99.7 L968.5 101.8 L984.5 103.2 L1000.5 103.9 L1016.5 103.9 L1032.5 103.3 L1048.6 102.3 L1064.6 100.8 L1080.6 99.2 L1096.6 97.6 L1112.6 96.2 L1128.7 95.2 L1144.7 94.6 L1160.7 94.6 L1176.7 95.2 L1192.7 96.4 L1208.8 98.1 L1224.8 100.1 L1240.8 102.4"/>
<path class="row" pathLength="1" opacity="0.72" style="animation-delay:440ms" d="M15.2 86.4 L29.8 87.7 L44.5 89.0 L59.1 90.2 L73.7 91.2 L88.3 91.9 L102.9 92.4 L117.6 92.6 L132.2 92.6 L146.8 92.5 L161.4 92.3 L176.0 92.3 L190.7 92.5 L205.3 92.9 L219.9 93.8 L234.5 95.0 L249.1 96.6 L263.8 98.5 L278.4 100.5 L293.0 102.7 L307.6 104.7 L322.2 106.5 L336.8 107.9 L351.5 108.6 L366.1 108.7 L380.7 108.0 L395.3 106.5 L409.9 104.3 L424.6 101.4 L439.2 97.9 L453.8 94.0 L468.4 90.0 L483.0 85.9 L497.7 81.9 L512.3 78.2 L526.9 75.0 L541.5 72.2 L556.1 70.0 L570.8 68.3 L585.4 67.1 L600.0 66.2 L614.6 65.7 L629.2 65.3 L643.9 65.1 L658.5 64.9 L673.1 64.6 L687.7 64.4 L702.3 64.2 L717.0 64.0 L731.6 63.9 L746.2 64.0 L760.8 64.5 L775.4 65.4 L790.1 66.7 L804.7 68.5 L819.3 70.8 L833.9 73.6 L848.5 76.7 L863.2 80.1 L877.8 83.5 L892.4 86.8 L907.0 89.9 L921.6 92.6 L936.2 94.7 L950.9 96.2 L965.5 97.0 L980.1 97.2 L994.7 96.8 L1009.3 95.9 L1024.0 94.6 L1038.6 93.1 L1053.2 91.6 L1067.8 90.2 L1082.4 89.1 L1097.1 88.4 L1111.7 88.2 L1126.3 88.4 L1140.9 89.2 L1155.5 90.3 L1170.2 91.8 L1184.8 93.4"/>
<path class="row" pathLength="1" opacity="0.68" style="animation-delay:495ms" d="M65.0 82.0 L78.4 83.1 L91.8 84.1 L105.1 84.9 L118.5 85.5 L131.9 85.8 L145.3 85.7 L158.6 85.5 L172.0 85.0 L185.4 84.4 L198.8 83.9 L212.1 83.4 L225.5 83.2 L238.9 83.3 L252.3 83.8 L265.6 84.7 L279.0 86.0 L292.4 87.6 L305.8 89.4 L319.1 91.3 L332.5 93.2 L345.9 94.8 L359.3 96.1 L372.6 96.8 L386.0 97.0 L399.4 96.4 L412.8 95.2 L426.1 93.3 L439.5 90.8 L452.9 87.8 L466.3 84.5 L479.6 81.0 L493.0 77.4 L506.4 74.0 L519.8 70.9 L533.1 68.1 L546.5 65.7 L559.9 63.7 L573.3 62.2 L586.6 61.1 L600.0 60.2 L613.4 59.6 L626.7 59.1 L640.1 58.8 L653.5 58.4 L666.9 58.0 L680.2 57.6 L693.6 57.2 L707.0 56.9 L720.4 56.8 L733.7 56.9 L747.1 57.4 L760.5 58.3 L773.9 59.7 L787.2 61.6 L800.6 63.9 L814.0 66.8 L827.4 69.9 L840.7 73.3 L854.1 76.8 L867.5 80.1 L880.9 83.2 L894.2 86.0 L907.6 88.2 L921.0 89.7 L934.4 90.7 L947.7 91.0 L961.1 90.8 L974.5 90.0 L987.9 88.9 L1001.2 87.5 L1014.6 86.1 L1028.0 84.8 L1041.4 83.7 L1054.7 82.9 L1068.1 82.5 L1081.5 82.5 L1094.9 82.9 L1108.2 83.5 L1121.6 84.5 L1135.0 85.5"/>
<path class="row" pathLength="1" opacity="0.64" style="animation-delay:550ms" d="M109.2 78.1 L121.5 79.0 L133.7 79.8 L146.0 80.3 L158.3 80.5 L170.5 80.4 L182.8 79.9 L195.1 79.2 L207.3 78.4 L219.6 77.4 L231.9 76.5 L244.2 75.7 L256.4 75.1 L268.7 74.9 L281.0 75.0 L293.2 75.6 L305.5 76.5 L317.8 77.8 L330.1 79.4 L342.3 81.0 L354.6 82.6 L366.9 84.1 L379.1 85.2 L391.4 86.0 L403.7 86.2 L415.9 85.8 L428.2 84.7 L440.5 83.2 L452.8 81.1 L465.0 78.5 L477.3 75.7 L489.6 72.8 L501.8 69.8 L514.1 67.0 L526.4 64.3 L538.6 62.0 L550.9 60.0 L563.2 58.3 L575.5 57.0 L587.7 56.0 L600.0 55.3 L612.3 54.6 L624.5 54.1 L636.8 53.6 L649.1 53.1 L661.4 52.6 L673.6 52.0 L685.9 51.5 L698.2 51.1 L710.4 50.9 L722.7 51.0 L735.0 51.4 L747.2 52.3 L759.5 53.7 L771.8 55.5 L784.1 57.9 L796.3 60.7 L808.6 63.9 L820.9 67.2 L833.1 70.6 L845.4 74.0 L857.7 77.1 L869.9 79.8 L882.2 82.1 L894.5 83.7 L906.8 84.8 L919.0 85.2 L931.3 85.1 L943.6 84.5 L955.8 83.6 L968.1 82.4 L980.4 81.1 L992.7 79.9 L1004.9 78.8 L1017.2 78.0 L1029.5 77.5 L1041.7 77.2 L1054.0 77.3 L1066.3 77.6 L1078.5 78.1 L1090.8 78.6"/>
<path class="row" pathLength="1" opacity="0.59" style="animation-delay:605ms" d="M148.4 74.5 L159.7 75.3 L171.0 75.8 L182.3 76.1 L193.6 76.0 L204.8 75.6 L216.1 74.8 L227.4 73.8 L238.7 72.6 L250.0 71.3 L261.3 70.0 L272.6 68.8 L283.9 68.0 L295.2 67.4 L306.5 67.2 L317.7 67.5 L329.0 68.1 L340.3 69.1 L351.6 70.3 L362.9 71.7 L374.2 73.1 L385.5 74.3 L396.8 75.4 L408.1 76.0 L419.4 76.2 L430.6 75.9 L441.9 75.1 L453.2 73.8 L464.5 72.1 L475.8 70.0 L487.1 67.7 L498.4 65.3 L509.7 62.9 L521.0 60.6 L532.3 58.5 L543.5 56.6 L554.8 55.0 L566.1 53.7 L577.4 52.7 L588.7 51.9 L600.0 51.2 L611.3 50.6 L622.6 50.1 L633.9 49.5 L645.2 48.9 L656.5 48.2 L667.7 47.6 L679.0 47.0 L690.3 46.4 L701.6 46.1 L712.9 46.1 L724.2 46.5 L735.5 47.3 L746.8 48.6 L758.1 50.4 L769.4 52.7 L780.6 55.4 L791.9 58.5 L803.2 61.8 L814.5 65.1 L825.8 68.4 L837.1 71.4 L848.4 74.1 L859.7 76.3 L871.0 78.0 L882.3 79.1 L893.5 79.7 L904.8 79.7 L916.1 79.3 L927.4 78.5 L938.7 77.5 L950.0 76.4 L961.3 75.3 L972.6 74.3 L983.9 73.5 L995.2 72.9 L1006.4 72.5 L1017.7 72.3 L1029.0 72.3 L1040.3 72.4 L1051.6 72.5"/>
<path class="row" pathLength="1" opacity="0.55" style="animation-delay:660ms" d="M183.2 71.0 L193.7 71.7 L204.1 72.2 L214.5 72.2 L224.9 71.9 L235.3 71.3 L245.7 70.3 L256.2 69.0 L266.6 67.5 L277.0 65.9 L287.4 64.3 L297.8 62.9 L308.3 61.7 L318.7 60.9 L329.1 60.4 L339.5 60.3 L349.9 60.6 L360.4 61.3 L370.8 62.2 L381.2 63.3 L391.6 64.4 L402.0 65.5 L412.5 66.4 L422.9 66.9 L433.3 67.1 L443.7 66.9 L454.1 66.3 L464.6 65.2 L475.0 63.8 L485.4 62.2 L495.8 60.4 L506.2 58.5 L516.6 56.6 L527.1 54.8 L537.5 53.2 L547.9 51.8 L558.3 50.6 L568.7 49.7 L579.2 49.0 L589.6 48.4 L600.0 47.9 L610.4 47.4 L620.8 46.9 L631.3 46.3 L641.7 45.6 L652.1 44.9 L662.5 44.1 L672.9 43.4 L683.4 42.8 L693.8 42.4 L704.2 42.3 L714.6 42.5 L725.0 43.2 L735.4 44.4 L745.9 46.1 L756.3 48.3 L766.7 50.9 L777.1 53.8 L787.5 56.9 L798.0 60.1 L808.4 63.2 L818.8 66.1 L829.2 68.7 L839.6 70.9 L850.1 72.6 L860.5 73.7 L870.9 74.4 L881.3 74.5 L891.7 74.3 L902.2 73.7 L912.6 72.9 L923.0 71.9 L933.4 71.0 L943.8 70.1 L954.3 69.3 L964.7 68.7 L975.1 68.2 L985.5 67.9 L995.9 67.6 L1006.3 67.4 L1016.8 67.2"/>
<path class="row" pathLength="1" opacity="0.50" style="animation-delay:715ms" d="M214.3 67.6 L223.9 68.3 L233.5 68.6 L243.2 68.6 L252.8 68.2 L262.5 67.3 L272.1 66.1 L281.8 64.6 L291.4 62.9 L301.1 61.1 L310.7 59.4 L320.3 57.7 L330.0 56.3 L339.6 55.2 L349.3 54.4 L358.9 54.1 L368.6 54.1 L378.2 54.4 L387.8 55.1 L397.5 55.9 L407.1 56.7 L416.8 57.5 L426.4 58.2 L436.1 58.7 L445.7 58.8 L455.3 58.7 L465.0 58.1 L474.6 57.3 L484.3 56.2 L493.9 55.0 L503.6 53.6 L513.2 52.1 L522.9 50.8 L532.5 49.5 L542.1 48.4 L551.8 47.5 L561.4 46.8 L571.1 46.2 L580.7 45.8 L590.4 45.5 L600.0 45.1 L609.6 44.8 L619.3 44.3 L628.9 43.8 L638.6 43.1 L648.2 42.4 L657.9 41.6 L667.5 40.8 L677.1 40.1 L686.8 39.6 L696.4 39.3 L706.1 39.5 L715.7 40.0 L725.4 41.1 L735.0 42.6 L744.7 44.6 L754.3 47.0 L763.9 49.7 L773.6 52.5 L783.2 55.5 L792.9 58.4 L802.5 61.2 L812.2 63.6 L821.8 65.7 L831.4 67.3 L841.1 68.5 L850.7 69.2 L860.4 69.4 L870.0 69.3 L879.7 68.9 L889.3 68.3 L898.9 67.5 L908.6 66.7 L918.2 66.0 L927.9 65.3 L937.5 64.7 L947.2 64.2 L956.8 63.8 L966.5 63.4 L976.1 63.0 L985.7 62.4"/>
<path class="row" pathLength="1" opacity="0.45" style="animation-delay:770ms" d="M242.0 64.2 L250.9 64.9 L259.9 65.2 L268.8 65.1 L277.8 64.5 L286.7 63.6 L295.7 62.3 L304.6 60.7 L313.6 58.8 L322.5 56.9 L331.5 55.0 L340.4 53.1 L349.4 51.5 L358.3 50.2 L367.3 49.2 L376.2 48.6 L385.2 48.4 L394.1 48.4 L403.1 48.8 L412.0 49.3 L421.0 49.9 L429.9 50.5 L438.9 50.9 L447.8 51.2 L456.8 51.3 L465.7 51.2 L474.7 50.7 L483.6 50.1 L492.6 49.3 L501.5 48.3 L510.5 47.3 L519.4 46.3 L528.4 45.4 L537.3 44.6 L546.3 44.0 L555.2 43.5 L564.2 43.3 L573.1 43.1 L582.1 43.0 L591.0 43.0 L600.0 42.9 L609.0 42.7 L617.9 42.4 L626.9 41.9 L635.8 41.3 L644.8 40.5 L653.7 39.7 L662.7 38.8 L671.6 38.1 L680.6 37.5 L689.5 37.2 L698.5 37.2 L707.4 37.6 L716.4 38.5 L725.3 39.8 L734.3 41.6 L743.2 43.7 L752.2 46.1 L761.1 48.7 L770.1 51.4 L779.0 54.1 L788.0 56.6 L796.9 58.9 L805.9 60.8 L814.8 62.3 L823.8 63.4 L832.7 64.1 L841.7 64.4 L850.6 64.4 L859.6 64.1 L868.5 63.7 L877.5 63.1 L886.4 62.5 L895.4 61.9 L904.3 61.3 L913.3 60.8 L922.2 60.4 L931.2 59.9 L940.1 59.4 L949.1 58.9 L958.0 58.2"/>
<path class="row" pathLength="1" opacity="0.40" style="animation-delay:825ms" d="M266.8 60.7 L275.1 61.3 L283.4 61.6 L291.8 61.5 L300.1 60.9 L308.4 60.0 L316.7 58.6 L325.1 56.9 L333.4 55.1 L341.7 53.0 L350.1 51.0 L358.4 49.1 L366.7 47.4 L375.1 45.9 L383.4 44.8 L391.7 44.0 L400.1 43.5 L408.4 43.3 L416.7 43.3 L425.1 43.6 L433.4 43.9 L441.7 44.2 L450.0 44.5 L458.4 44.6 L466.7 44.6 L475.0 44.4 L483.4 44.1 L491.7 43.6 L500.0 42.9 L508.4 42.2 L516.7 41.6 L525.0 41.0 L533.4 40.5 L541.7 40.1 L550.0 40.0 L558.3 39.9 L566.7 40.1 L575.0 40.3 L583.3 40.5 L591.7 40.8 L600.0 40.9 L608.3 40.9 L616.7 40.8 L625.0 40.4 L633.3 39.9 L641.7 39.2 L650.0 38.4 L658.3 37.5 L666.6 36.7 L675.0 36.1 L683.3 35.7 L691.6 35.6 L700.0 35.9 L708.3 36.5 L716.6 37.6 L725.0 39.1 L733.3 41.0 L741.6 43.1 L750.0 45.4 L758.3 47.8 L766.6 50.2 L774.9 52.4 L783.3 54.4 L791.6 56.1 L799.9 57.5 L808.3 58.5 L816.6 59.1 L824.9 59.5 L833.3 59.5 L841.6 59.4 L849.9 59.1 L858.3 58.7 L866.6 58.2 L874.9 57.8 L883.3 57.4 L891.6 57.0 L899.9 56.6 L908.2 56.2 L916.6 55.7 L924.9 55.0 L933.2 54.2"/>
<path class="row" pathLength="1" opacity="0.35" style="animation-delay:880ms" d="M289.0 57.0 L296.8 57.7 L304.6 58.0 L312.4 57.9 L320.1 57.3 L327.9 56.3 L335.7 55.0 L343.5 53.3 L351.2 51.5 L359.0 49.5 L366.8 47.5 L374.6 45.5 L382.3 43.7 L390.1 42.2 L397.9 40.9 L405.6 40.0 L413.4 39.3 L421.2 38.9 L429.0 38.7 L436.7 38.7 L444.5 38.7 L452.3 38.8 L460.1 38.9 L467.8 38.9 L475.6 38.8 L483.4 38.5 L491.2 38.1 L498.9 37.7 L506.7 37.2 L514.5 36.8 L522.3 36.4 L530.0 36.1 L537.8 36.0 L545.6 36.0 L553.4 36.2 L561.1 36.6 L568.9 37.1 L576.7 37.7 L584.5 38.3 L592.2 38.8 L600.0 39.2 L607.8 39.4 L615.5 39.4 L623.3 39.2 L631.1 38.8 L638.9 38.2 L646.6 37.5 L654.4 36.7 L662.2 35.9 L670.0 35.2 L677.7 34.7 L685.5 34.5 L693.3 34.7 L701.1 35.2 L708.8 36.0 L716.6 37.3 L724.4 38.8 L732.2 40.6 L739.9 42.6 L747.7 44.6 L755.5 46.6 L763.3 48.5 L771.0 50.2 L778.8 51.7 L786.6 52.8 L794.4 53.7 L802.1 54.3 L809.9 54.6 L817.7 54.7 L825.4 54.6 L833.2 54.4 L841.0 54.2 L848.8 53.9 L856.5 53.7 L864.3 53.4 L872.1 53.1 L879.9 52.9 L887.6 52.5 L895.4 52.0 L903.2 51.4 L911.0 50.6"/>
<path class="row" pathLength="1" opacity="0.29" style="animation-delay:935ms" d="M309.1 53.2 L316.4 53.9 L323.6 54.2 L330.9 54.1 L338.2 53.6 L345.5 52.7 L352.7 51.4 L360.0 49.8 L367.3 48.0 L374.5 46.1 L381.8 44.1 L389.1 42.2 L396.4 40.5 L403.6 38.9 L410.9 37.6 L418.2 36.5 L425.5 35.7 L432.7 35.2 L440.0 34.8 L447.3 34.6 L454.5 34.4 L461.8 34.3 L469.1 34.1 L476.4 33.9 L483.6 33.7 L490.9 33.3 L498.2 33.0 L505.5 32.6 L512.7 32.2 L520.0 31.9 L527.3 31.7 L534.5 31.7 L541.8 31.9 L549.1 32.2 L556.4 32.8 L563.6 33.5 L570.9 34.3 L578.2 35.2 L585.5 36.1 L592.7 36.9 L600.0 37.6 L607.3 38.0 L614.5 38.3 L621.8 38.2 L629.1 38.0 L636.4 37.5 L643.6 36.8 L650.9 36.1 L658.2 35.3 L665.5 34.7 L672.7 34.2 L680.0 33.9 L687.3 33.9 L694.5 34.2 L701.8 34.9 L709.1 35.9 L716.4 37.1 L723.6 38.6 L730.9 40.2 L738.2 41.8 L745.5 43.4 L752.7 45.0 L760.0 46.3 L767.3 47.5 L774.5 48.4 L781.8 49.1 L789.1 49.5 L796.4 49.8 L803.6 49.8 L810.9 49.8 L818.2 49.7 L825.5 49.6 L832.7 49.5 L840.0 49.4 L847.3 49.3 L854.5 49.2 L861.8 49.1 L869.1 48.8 L876.4 48.4 L883.6 47.9 L890.9 47.1"/>
<path class="row" pathLength="1" opacity="0.24" style="animation-delay:990ms" d="M327.2 49.2 L334.0 49.9 L340.9 50.2 L347.7 50.2 L354.5 49.7 L361.3 48.9 L368.1 47.7 L375.0 46.2 L381.8 44.6 L388.6 42.8 L395.4 41.0 L402.2 39.2 L409.1 37.5 L415.9 36.0 L422.7 34.7 L429.5 33.6 L436.3 32.8 L443.1 32.1 L450.0 31.6 L456.8 31.2 L463.6 30.8 L470.4 30.5 L477.2 30.2 L484.1 29.8 L490.9 29.4 L497.7 29.0 L504.5 28.6 L511.3 28.2 L518.2 27.8 L525.0 27.7 L531.8 27.6 L538.6 27.8 L545.4 28.2 L552.3 28.8 L559.1 29.7 L565.9 30.7 L572.7 31.8 L579.5 32.9 L586.4 34.1 L593.2 35.1 L600.0 36.0 L606.8 36.7 L613.6 37.1 L620.5 37.3 L627.3 37.2 L634.1 36.8 L640.9 36.3 L647.7 35.7 L654.6 35.0 L661.4 34.4 L668.2 33.9 L675.0 33.6 L681.8 33.5 L688.7 33.7 L695.5 34.1 L702.3 34.8 L709.1 35.8 L715.9 36.9 L722.8 38.1 L729.6 39.4 L736.4 40.6 L743.2 41.8 L750.0 42.8 L756.9 43.6 L763.7 44.2 L770.5 44.7 L777.3 44.9 L784.1 45.1 L790.9 45.1 L797.8 45.1 L804.6 45.1 L811.4 45.0 L818.2 45.0 L825.0 45.1 L831.9 45.1 L838.7 45.2 L845.5 45.2 L852.3 45.1 L859.1 44.8 L866.0 44.3 L872.8 43.6"/>
<path class="row" pathLength="1" opacity="0.18" style="animation-delay:1045ms" d="M343.6 45.1 L350.0 45.8 L356.5 46.1 L362.9 46.1 L369.3 45.7 L375.7 45.0 L382.1 43.9 L388.5 42.6 L394.9 41.1 L401.3 39.5 L407.7 37.9 L414.1 36.3 L420.5 34.8 L427.0 33.4 L433.4 32.2 L439.8 31.2 L446.2 30.3 L452.6 29.6 L459.0 29.0 L465.4 28.5 L471.8 28.0 L478.2 27.5 L484.6 27.0 L491.0 26.5 L497.5 26.0 L503.9 25.4 L510.3 24.9 L516.7 24.5 L523.1 24.2 L529.5 24.1 L535.9 24.1 L542.3 24.5 L548.7 25.0 L555.1 25.8 L561.5 26.9 L568.0 28.1 L574.4 29.4 L580.8 30.8 L587.2 32.1 L593.6 33.4 L600.0 34.5 L606.4 35.3 L612.8 35.9 L619.2 36.3 L625.6 36.3 L632.0 36.2 L638.5 35.8 L644.9 35.3 L651.3 34.7 L657.7 34.2 L664.1 33.7 L670.5 33.4 L676.9 33.3 L683.3 33.3 L689.7 33.6 L696.1 34.1 L702.5 34.8 L709.0 35.6 L715.4 36.5 L721.8 37.3 L728.2 38.2 L734.6 38.9 L741.0 39.5 L747.4 40.0 L753.8 40.3 L760.2 40.5 L766.6 40.6 L773.0 40.6 L779.5 40.5 L785.9 40.5 L792.3 40.4 L798.7 40.5 L805.1 40.6 L811.5 40.7 L817.9 40.9 L824.3 41.1 L830.7 41.2 L837.1 41.3 L843.5 41.1 L850.0 40.8 L856.4 40.2"/>
</g>
<path class="name" d="M3.63 121H11.37V105.12H20.16C20.24 105.12 20.3 105.12 20.36 105.12L28.56 121H37.09L27.98 103.71C33.16 101.61 36.27 97.24 36.27 91.29C36.27 82.74 30.26 77.35 20.65 77.35H3.63ZM11.37 98.73V83.91H20.21C25.43 83.91 28.65 86.75 28.65 91.29C28.65 95.86 25.43 98.73 20.27 98.73Z M49.92 121.5C54.96 121.5 57.56 119.39 59.03 116.63H59.15V121H66.41V99.91C66.41 93.46 61.64 89.45 53.58 89.45C45.49 89.45 40.45 93.52 40.1 99.67H47.22C47.43 97.06 49.83 95.19 53.43 95.19C56.98 95.19 59.09 97.06 59.09 99.7V99.94C59.09 102.04 57.12 102.13 51.38 102.78C45 103.45 39.22 105.18 39.22 112.21C39.22 118.39 43.77 121.5 49.92 121.5ZM51.73 116.02C48.51 116.02 46.43 114.58 46.43 112.15C46.43 109.34 49.13 108.2 52.29 107.73C55.34 107.26 58.21 106.79 59.12 106.21V109.54C59.12 113.15 56.57 116.02 51.73 116.02Z M71.5 121H78.89V102.54C78.89 98.12 81.73 95.72 85.07 95.72C88.35 95.72 90.69 97.91 90.69 101.28V121H97.87V102.02C97.87 98.32 100.19 95.72 103.94 95.72C107.1 95.72 109.68 97.53 109.68 101.63V121H117.09V100.58C117.09 93.31 112.58 89.45 106.72 89.45C102.21 89.45 98.52 91.73 96.88 95.31C95.59 91.76 92.16 89.45 87.97 89.45C84.07 89.45 80.53 91.44 78.65 95.42V90.06H71.5Z M153.62 121.7C164.63 121.7 172.69 114.17 172.69 103.54V98.27H154.9V104.39H165.04C164.98 110.57 160.24 114.76 153.79 114.76C145.94 114.76 140.93 108.64 140.93 99.2C140.93 89.74 145.91 83.59 153.73 83.59C159.33 83.59 163.43 86.9 164.51 91.82H172.39C171.13 82.8 163.28 76.64 153.53 76.64C141.81 76.64 133.14 85.49 133.14 99.2C133.14 112.56 141.52 121.7 153.62 121.7Z M190.73 121.7C199.84 121.7 205.99 115.17 205.99 105.56C205.99 95.95 199.84 89.36 190.73 89.36C181.62 89.36 175.47 95.95 175.47 105.56C175.47 115.17 181.62 121.7 190.73 121.7ZM190.73 115.52C185.95 115.52 182.94 111.74 182.94 105.56C182.94 99.35 185.98 95.54 190.73 95.54C195.45 95.54 198.49 99.38 198.49 105.56C198.49 111.71 195.48 115.52 190.73 115.52Z M220.67 121.62C224.94 121.62 228.08 119.74 230.19 116.25V121H237.45V90.06H230.04V107.55C230.04 112.83 227.17 115.14 223.27 115.14C219.32 115.14 217.03 112.77 217.03 108.23V90.06H209.65V109.4C209.65 117.34 214.19 121.62 220.67 121.62Z M242.58 121H249.96V103.48C249.96 98.65 252.68 96.21 256.2 96.21C257.66 96.21 259.13 96.36 259.69 96.45V89.89C259.1 89.83 258.28 89.77 257.28 89.77C253.3 89.77 250.93 91.64 249.78 95.19H249.7V90.06H242.58Z"/>
</svg>