<svg xmlns="http://www.w3.org/2000/svg" viewBox="0 0 410 190" width="410" height="190" role="img" aria-labelledby="t">
<title id="t">Languages: Python, TypeScript, JavaScript, C++, C, Java, SQL. Backend and data: FastAPI, PostgreSQL, Supabase, Docker, Node.js</title>
<defs><path id="r24" d="M180 0H1060V-168H370V-1490H180Z"/><path id="r2p" d="M471 26C660 26 765 -73 803 -152H815V0H992V-737C992 -1086 723 -1132 573 -1132C400 -1132 208 -1070 122 -867L295 -810C330 -888 417 -974 578 -974C733 -974 812 -894 812 -755V-749C812 -666 724 -672 525 -647C318 -621 90 -574 90 -318C90 -98 259 26 471 26ZM502 -133C368 -133 271 -193 271 -309C271 -436 386 -478 517 -495C586 -504 782 -524 812 -559V-404C812 -267 701 -133 502 -133Z"/><path id="r32" d="M338 -670C338 -861 459 -970 620 -970C776 -970 872 -867 872 -695V0H1052V-710C1052 -993 900 -1132 674 -1132C524 -1132 404 -1069 332 -911L331 -1118H158V0H338Z"/><path id="r2v" d="M611 442C883 442 1098 318 1098 29V-1118H923V-939H906C868 -999 796 -1132 580 -1132C301 -1132 104 -910 104 -564C104 -213 308 -18 576 -18C792 -18 863 -141 901 -205H918V19C918 203 789 285 611 285C414 285 344 185 297 120L151 214C220 337 363 442 611 442ZM606 -178C396 -178 287 -338 287 -568C287 -791 393 -971 606 -971C812 -971 920 -805 920 -568C920 -324 809 -178 606 -178Z"/><path id="r39" d="M537 14C684 14 806 -46 879 -209V0H1053V-1118H872V-448C872 -257 751 -148 591 -148C435 -148 338 -251 338 -423V-1118H158V-408C158 -125 311 14 537 14Z"/><path id="r2t" d="M628 24C857 24 1024 -91 1076 -260L902 -308C860 -194 761 -136 629 -136C431 -136 295 -264 286 -498H1094V-573C1094 -986 844 -1132 607 -1132C302 -1132 104 -893 104 -550C104 -206 304 24 628 24ZM287 -650C298 -821 415 -972 607 -972C791 -972 894 -840 911 -650Z"/><path id="r37" d="M538 24C800 24 979 -119 979 -315C979 -468 884 -569 681 -617L512 -657C381 -688 324 -734 324 -817C324 -910 424 -979 557 -979C701 -979 764 -901 795 -821L958 -863C907 -1020 786 -1132 556 -1132C318 -1132 142 -998 142 -806C142 -649 239 -549 442 -501L628 -457C738 -431 792 -380 792 -303C792 -211 692 -134 536 -134C402 -134 311 -189 279 -312L108 -271C148 -78 308 24 538 24Z"/><path id="r28" d="M180 0H370V-539H691C1038 -539 1198 -750 1198 -1016C1198 -1281 1038 -1490 690 -1490H180ZM370 -706V-1323H680C918 -1323 1009 -1192 1009 -1016C1009 -839 918 -706 682 -706Z"/><path id="r3d" d="M140 405C159 414 208 426 272 426C430 426 538 345 606 167L1097 -1118H901L661 -455C626 -358 600 -261 575 -168C549 -261 524 -357 489 -455L251 -1118H54L481 6L449 99C394 259 315 283 205 254L186 249Z"/><path id="r38" d="M598 -1118H368V-1384H188V-1118H20V-964H188V-276C188 -93 302 14 495 14C541 14 592 7 629 -6L592 -158C562 -152 523 -146 500 -146C405 -146 368 -190 368 -290V-964H598Z"/><path id="r2w" d="M338 -670C338 -861 459 -970 620 -970C776 -970 872 -867 872 -695V0H1053V-710C1053 -993 900 -1132 674 -1132C528 -1132 411 -1073 338 -924V-1490H158V0H338Z"/><path id="r33" d="M613 24C918 24 1124 -207 1124 -552C1124 -902 918 -1132 613 -1132C309 -1132 104 -902 104 -552C104 -207 309 24 613 24ZM613 -137C390 -137 287 -332 287 -552C287 -775 390 -971 613 -971C839 -971 942 -774 942 -552C942 -332 839 -137 613 -137Z"/><path id="r2c" d="M98 -1322H567V0H757V-1322H1224V-1490H98Z"/><path id="r34" d="M158 418H338V-173H352C389 -111 464 24 677 24C956 24 1150 -200 1150 -556C1150 -910 955 -1132 676 -1132C458 -1132 389 -998 352 -939H332V-1118H158ZM650 -137C447 -137 336 -309 336 -558C336 -805 444 -971 650 -971C862 -971 967 -790 967 -558C967 -323 859 -137 650 -137Z"/><path id="r2b" d="M657 26C1001 26 1198 -162 1198 -406C1198 -684 936 -774 776 -818L627 -859C518 -889 343 -944 343 -1100C343 -1240 471 -1342 664 -1342C841 -1342 975 -1259 992 -1114H1178C1169 -1339 964 -1510 670 -1510C382 -1510 158 -1343 158 -1091C158 -893 298 -770 538 -702L718 -651C877 -606 1013 -553 1013 -409C1013 -250 859 -144 657 -144C482 -144 326 -221 311 -390H116C133 -140 334 26 657 26Z"/><path id="r2r" d="M613 24C832 24 1010 -95 1070 -294L898 -343C865 -222 763 -137 613 -137C390 -137 287 -332 287 -552C287 -775 390 -971 613 -971C760 -971 860 -889 893 -774L1066 -823C1005 -1018 829 -1132 613 -1132C309 -1132 104 -902 104 -552C104 -207 309 24 613 24Z"/><path id="r36" d="M158 0H338V-700C338 -851 456 -960 617 -960C665 -960 714 -952 725 -950V-1131C704 -1132 660 -1134 634 -1134C501 -1134 385 -1059 344 -946H332V-1118H158Z"/><path id="r2x" d="M158 0H338V-1118H158ZM249 -1301C318 -1301 375 -1354 375 -1420C375 -1486 318 -1539 249 -1539C181 -1539 124 -1486 124 -1420C124 -1354 181 -1301 249 -1301Z"/><path id="r22" d="M545 20C808 20 989 -140 989 -426V-1490H799V-426C799 -244 697 -147 545 -147C392 -147 290 -244 290 -426V-506H100V-426C100 -140 282 20 545 20Z"/><path id="r3a" d="M481 0H670L1097 -1118H900L662 -455C627 -358 601 -260 576 -167C550 -260 524 -358 489 -455L251 -1118H54Z"/><path id="r1v" d="M783 20C1088 20 1332 -166 1384 -469H1194C1152 -266 978 -156 783 -156C516 -156 307 -363 307 -744C307 -1126 515 -1334 783 -1334C977 -1334 1152 -1225 1194 -1021H1384C1331 -1328 1085 -1510 783 -1510C401 -1510 122 -1217 122 -744C122 -272 401 20 783 20Z"/><path id="r17" d="M593 -100H762V-504H1160V-663H762V-1066H593V-663H195V-504H593Z"/><path id="r29" d="M784 20C880 20 969 2 1049 -33L1178 140H1376L1184 -115C1345 -245 1444 -462 1444 -744C1444 -1217 1166 -1510 784 -1510C402 -1510 122 -1217 122 -744C122 -272 402 20 784 20ZM722 -466 938 -181C890 -165 838 -156 784 -156C516 -156 307 -364 307 -744C307 -1126 516 -1334 784 -1334C1050 -1334 1259 -1127 1259 -744C1259 -522 1188 -359 1076 -261L920 -466Z"/><path id="r1u" d="M180 0H725C1076 0 1224 -172 1224 -397C1224 -631 1061 -759 922 -768V-782C1052 -817 1166 -904 1166 -1095C1166 -1313 1019 -1490 708 -1490H180ZM370 -168V-676H730C921 -676 1041 -548 1041 -399C1041 -270 952 -168 720 -168ZM370 -836V-1322H704C897 -1322 984 -1220 984 -1091C984 -937 858 -836 698 -836Z"/><path id="r2z" d="M158 0H338V-412L456 -523L865 0H1096L593 -638L1061 -1118H838L360 -625H338V-1490H158Z"/><path id="r2s" d="M577 24C790 24 865 -111 902 -173H922V0H1096V-1490H916V-939H902C865 -998 796 -1132 578 -1132C299 -1132 104 -910 104 -556C104 -200 298 24 577 24ZM604 -137C395 -137 287 -323 287 -558C287 -790 392 -971 604 -971C810 -971 918 -805 918 -558C918 -309 807 -137 604 -137Z"/><path id="r1y" d="M180 0H370V-644H1013V-812H370V-1322H1081V-1490H180Z"/><path id="r1t" d="M52 0H254L398 -416H1012L1161 0H1361L813 -1490H593ZM456 -582 561 -884C593 -976 639 -1118 702 -1338C765 -1122 809 -984 845 -884L953 -582Z"/><path id="r21" d="M370 -1490H180V0H370Z"/><path id="r2q" d="M677 24C956 24 1150 -200 1150 -556C1150 -910 955 -1132 676 -1132C458 -1132 389 -998 352 -939H338V-1490H158V0H332V-173H352C389 -111 464 24 677 24ZM650 -137C447 -137 336 -309 336 -558C336 -805 444 -971 650 -971C862 -971 967 -790 967 -558C967 -323 859 -137 650 -137Z"/><path id="r1w" d="M645 0C1099 0 1356 -282 1356 -748C1356 -1210 1099 -1490 664 -1490H180V0ZM370 -168V-1322H651C996 -1322 1172 -1106 1172 -748C1172 -386 996 -168 633 -168Z"/><path id="r26" d="M180 0H371V-850C371 -922 364 -1071 356 -1262C472 -1055 529 -955 597 -848L1137 0H1363V-1490H1173V-576C1173 -496 1174 -369 1186 -225C1118 -360 1050 -474 1010 -537L404 -1490H180Z"/><path id="r1a" d="M295 13C370 13 430 -47 430 -122C430 -197 370 -257 295 -257C220 -257 160 -197 160 -122C160 -47 220 13 295 13Z"/><path id="r2y" d="M157 -1118V80C157 191 111 252 7 252H-26V418H10C227 418 339 293 338 80V-1118ZM248 -1301C317 -1301 374 -1354 374 -1420C374 -1486 317 -1539 248 -1539C180 -1539 123 -1486 123 -1420C123 -1354 180 -1301 248 -1301Z"/></defs>
<g fill="#9198a1" transform="translate(0 11) scale(0.00586)"><use href="#r24" x="0"/><use href="#r2p" x="1158"/><use href="#r32" x="2308"/><use href="#r2v" x="3518"/><use href="#r39" x="4774"/><use href="#r2p" x="5985"/><use href="#r2v" x="7135"/><use href="#r2t" x="8391"/><use href="#r37" x="9585"/></g>
<rect x="0.5" y="22.5" width="80" height="27" rx="6.5" fill="#f0f6fc" fill-opacity="0.035" stroke="#3d444d"/>
<path fill="#a48cf2" transform="translate(10 29.5) scale(0.5417)" d="M14.25.18l.9.2.73.26.59.3.45.32.34.34.25.34.16.33.1.3.04.26.02.2-.01.13V8.5l-.05.63-.13.55-.21.46-.26.38-.3.31-.33.25-.35.19-.35.14-.33.1-.3.07-.26.04-.21.02H8.77l-.69.05-.59.14-.5.22-.41.27-.33.32-.27.35-.2.36-.15.37-.1.35-.07.32-.04.27-.02.21v3.06H3.17l-.21-.03-.28-.07-.32-.12-.35-.18-.36-.26-.36-.36-.35-.46-.32-.59-.28-.73-.21-.88-.14-1.05-.05-1.23.06-1.22.16-1.04.24-.87.32-.71.36-.57.4-.44.42-.33.42-.24.4-.16.36-.1.32-.05.24-.01h.16l.06.01h8.16v-.83H6.18l-.01-2.75-.02-.37.05-.34.11-.31.17-.28.25-.26.31-.23.38-.2.44-.18.51-.15.58-.12.64-.1.71-.06.77-.04.84-.02 1.27.05zm-6.3 1.98l-.23.33-.08.41.08.41.23.34.33.22.41.09.41-.09.33-.22.23-.34.08-.41-.08-.41-.23-.33-.33-.22-.41-.09-.41.09zm13.09 3.95l.28.06.32.12.35.18.36.27.36.35.35.47.32.59.28.73.21.88.14 1.04.05 1.23-.06 1.23-.16 1.04-.24.86-.32.71-.36.57-.4.45-.42.33-.42.24-.4.16-.36.09-.32.05-.24.02-.16-.01h-8.22v.82h5.84l.01 2.76.02.36-.05.34-.11.31-.17.29-.25.25-.31.24-.38.2-.44.17-.51.15-.58.13-.64.09-.71.07-.77.04-.84.01-1.27-.04-1.07-.14-.9-.2-.73-.25-.59-.3-.45-.33-.34-.34-.25-.34-.16-.33-.1-.3-.04-.25-.02-.2.01-.13v-5.34l.05-.64.13-.54.21-.46.26-.38.3-.32.33-.24.35-.2.35-.14.33-.1.3-.06.26-.04.21-.02.13-.01h5.84l.69-.05.59-.14.5-.21.41-.28.33-.32.27-.35.2-.36.15-.36.1-.35.07-.32.04-.28.02-.21V6.07h2.09l.14.01zm-6.47 14.25l-.23.33-.08.41.08.41.23.33.33.23.41.08.41-.08.33-.23.23-.33.08-.41-.08-.41-.23-.33-.33-.23-.41-.08-.41.08z"/>
<g fill="#f0f6fc" opacity="0.9" transform="translate(29 40.5) scale(0.00610)"><use href="#r28" x="0"/><use href="#r3d" x="1308"/><use href="#r38" x="2489"/><use href="#r2w" x="3159"/><use href="#r33" x="4370"/><use href="#r32" x="5598"/></g>
<rect x="88.5" y="22.5" width="103" height="27" rx="6.5" fill="#f0f6fc" fill-opacity="0.035" stroke="#3d444d"/>
<path fill="#a48cf2" transform="translate(98 29.5) scale(0.5417)" d="M1.125 0C.502 0 0 .502 0 1.125v21.75C0 23.498.502 24 1.125 24h21.75c.623 0 1.125-.502 1.125-1.125V1.125C24 .502 23.498 0 22.875 0zm17.363 9.75c.612 0 1.154.037 1.627.111a6.38 6.38 0 0 1 1.306.34v2.458a3.95 3.95 0 0 0-.643-.361 5.093 5.093 0 0 0-.717-.26 5.453 5.453 0 0 0-1.426-.2c-.3 0-.573.028-.819.086a2.1 2.1 0 0 0-.623.242c-.17.104-.3.229-.393.374a.888.888 0 0 0-.14.49c0 .196.053.373.156.529.104.156.252.304.443.444s.423.276.696.41c.273.135.582.274.926.416.47.197.892.407 1.266.628.374.222.695.473.963.753.268.279.472.598.614.957.142.359.214.776.214 1.253 0 .657-.125 1.21-.373 1.656a3.033 3.033 0 0 1-1.012 1.085 4.38 4.38 0 0 1-1.487.596c-.566.12-1.163.18-1.79.18a9.916 9.916 0 0 1-1.84-.164 5.544 5.544 0 0 1-1.512-.493v-2.63a5.033 5.033 0 0 0 3.237 1.2c.333 0 .624-.03.872-.09.249-.06.456-.144.623-.25.166-.108.29-.234.373-.38a1.023 1.023 0 0 0-.074-1.089 2.12 2.12 0 0 0-.537-.5 5.597 5.597 0 0 0-.807-.444 27.72 27.72 0 0 0-1.007-.436c-.918-.383-1.602-.852-2.053-1.405-.45-.553-.676-1.222-.676-2.005 0-.614.123-1.141.369-1.582.246-.441.58-.804 1.004-1.089a4.494 4.494 0 0 1 1.47-.629 7.536 7.536 0 0 1 1.77-.201zm-15.113.188h9.563v2.166H9.506v9.646H6.789v-9.646H3.375z"/>
<g fill="#f0f6fc" opacity="0.9" transform="translate(117 40.5) scale(0.00610)"><use href="#r2c" x="0"/><use href="#r3d" x="1194"/><use href="#r34" x="2345"/><use href="#r2t" x="3599"/><use href="#r2b" x="4793"/><use href="#r2r" x="6107"/><use href="#r36" x="7277"/><use href="#r2x" x="8080"/><use href="#r34" x="8576"/><use href="#r38" x="9830"/></g>
<rect x="199.5" y="22.5" width="101" height="27" rx="6.5" fill="#f0f6fc" fill-opacity="0.035" stroke="#3d444d"/>
<path fill="#a48cf2" transform="translate(209 29.5) scale(0.5417)" d="M0 0h24v24H0V0zm22.034 18.276c-.175-1.095-.888-2.015-3.003-2.873-.736-.345-1.554-.585-1.797-1.14-.091-.33-.105-.51-.046-.705.15-.646.915-.84 1.515-.66.39.12.75.42.976.9 1.034-.676 1.034-.676 1.755-1.125-.27-.42-.404-.601-.586-.78-.63-.705-1.469-1.065-2.834-1.034l-.705.089c-.676.165-1.32.525-1.71 1.005-1.14 1.291-.811 3.541.569 4.471 1.365 1.02 3.361 1.244 3.616 2.205.24 1.17-.87 1.545-1.966 1.41-.811-.18-1.26-.586-1.755-1.336l-1.83 1.051c.21.48.45.689.81 1.109 1.74 1.756 6.09 1.666 6.871-1.004.029-.09.24-.705.074-1.65l.046.067zm-8.983-7.245h-2.248c0 1.938-.009 3.864-.009 5.805 0 1.232.063 2.363-.138 2.711-.33.689-1.18.601-1.566.48-.396-.196-.597-.466-.83-.855-.063-.105-.11-.196-.127-.196l-1.825 1.125c.305.63.75 1.172 1.324 1.517.855.51 2.004.675 3.207.405.783-.226 1.458-.691 1.811-1.411.51-.93.402-2.07.397-3.346.012-2.054 0-4.109 0-6.179l.004-.056z"/>
<g fill="#f0f6fc" opacity="0.9" transform="translate(228 40.5) scale(0.00610)"><use href="#r22" x="0"/><use href="#r2p" x="1169"/><use href="#r3a" x="2289"/><use href="#r2p" x="3430"/><use href="#r2b" x="4580"/><use href="#r2r" x="5894"/><use href="#r36" x="7064"/><use href="#r2x" x="7867"/><use href="#r34" x="8363"/><use href="#r38" x="9617"/></g>
<rect x="308.5" y="22.5" width="64" height="27" rx="6.5" fill="#f0f6fc" fill-opacity="0.035" stroke="#3d444d"/>
<path fill="#a48cf2" transform="translate(318 29.5) scale(0.5417)" d="M22.394 6c-.167-.29-.398-.543-.652-.69L12.926.22c-.509-.294-1.34-.294-1.848 0L2.26 5.31c-.508.293-.923 1.013-.923 1.6v10.18c0 .294.104.62.271.91.167.29.398.543.652.69l8.816 5.09c.508.293 1.34.293 1.848 0l8.816-5.09c.254-.147.485-.4.652-.69.167-.29.27-.616.27-.91V6.91c.003-.294-.1-.62-.268-.91zM12 19.11c-3.92 0-7.109-3.19-7.109-7.11 0-3.92 3.19-7.11 7.11-7.11a7.133 7.133 0 016.156 3.553l-3.076 1.78a3.567 3.567 0 00-3.08-1.78A3.56 3.56 0 008.444 12 3.56 3.56 0 0012 15.555a3.57 3.57 0 003.08-1.778l3.078 1.78A7.135 7.135 0 0112 19.11zm7.11-6.715h-.79v.79h-.79v-.79h-.79v-.79h.79v-.79h.79v.79h.79zm2.962 0h-.79v.79h-.79v-.79h-.79v-.79h.79v-.79h.79v.79h.79z"/>
<g fill="#f0f6fc" opacity="0.9" transform="translate(337 40.5) scale(0.00610)"><use href="#r1v" x="0"/><use href="#r17" x="1496"/><use href="#r17" x="2851"/></g>
<rect x="0.5" y="57.5" width="48" height="27" rx="6.5" fill="#f0f6fc" fill-opacity="0.035" stroke="#3d444d"/>
<path fill="#a48cf2" transform="translate(10 64.5) scale(0.5417)" d="M16.5921 9.1962s-.354-3.298-3.627-3.39c-3.2741-.09-4.9552 2.474-4.9552 6.14 0 3.6651 1.858 6.5972 5.0451 6.5972 3.184 0 3.5381-3.665 3.5381-3.665l6.1041.365s.36 3.31-2.196 5.836c-2.552 2.5241-5.6901 2.9371-7.8762 2.9201-2.19-.017-5.2261.034-8.1602-2.97-2.938-3.0101-3.436-5.9302-3.436-8.8002 0-2.8701.556-6.6702 4.047-9.5502C7.444.72 9.849 0 12.254 0c10.0422 0 10.7172 9.2602 10.7172 9.2602z"/>
<g fill="#f0f6fc" opacity="0.9" transform="translate(29 75.5) scale(0.00610)"><use href="#r1v" x="0"/></g>
<rect x="56.5" y="57.5" width="66" height="27" rx="6.5" fill="#f0f6fc" fill-opacity="0.035" stroke="#3d444d"/>
<path fill="#a48cf2" transform="translate(66 64.5) scale(0.5417)" d="M11.915 0 11.7.215C9.515 2.4 7.47 6.39 6.046 10.483c-1.064 1.024-3.633 2.81-3.711 3.551-.093.87 1.746 2.611 1.55 3.235-.198.625-1.304 1.408-1.014 1.939.1.188.823.011 1.277-.491a13.389 13.389 0 0 0-.017 2.14c.076.906.27 1.668.643 2.232.372.563.956.911 1.667.911.397 0 .727-.114 1.024-.264.298-.149.571-.33.91-.5.68-.34 1.634-.666 3.53-.604 1.903.062 2.872.39 3.559.704.687.314 1.15.664 1.925.664.767 0 1.395-.336 1.807-.9.412-.563.631-1.33.72-2.24.06-.623.055-1.32 0-2.066.454.45 1.117.604 1.213.424.29-.53-.816-1.314-1.013-1.937-.198-.624 1.642-2.366 1.549-3.236-.08-.748-2.707-2.568-3.748-3.586C16.428 6.374 14.308 2.394 12.13.215zm.175 6.038a2.95 2.95 0 0 1 2.943 2.942 2.95 2.95 0 0 1-2.943 2.943A2.95 2.95 0 0 1 9.148 8.98a2.95 2.95 0 0 1 2.942-2.942zM8.685 7.983a3.515 3.515 0 0 0-.145.997c0 1.951 1.6 3.55 3.55 3.55 1.95 0 3.55-1.598 3.55-3.55 0-.329-.046-.648-.132-.951.334.095.64.208.915.336a42.699 42.699 0 0 1 2.042 5.829c.678 2.545 1.01 4.92.846 6.607-.082.844-.29 1.51-.606 1.94-.315.431-.713.651-1.315.651-.593 0-.932-.27-1.673-.61-.741-.338-1.825-.694-3.792-.758-1.974-.064-3.073.293-3.821.669-.375.188-.659.373-.911.5s-.466.2-.752.2c-.53 0-.876-.209-1.16-.64-.285-.43-.474-1.101-.545-1.948-.141-1.693.176-4.069.823-6.614a43.155 43.155 0 0 1 1.934-5.783c.348-.167.749-.31 1.192-.425zm-3.382 4.362a.216.216 0 0 1 .13.031c-.166.56-.323 1.116-.463 1.665a33.849 33.849 0 0 0-.547 2.555 3.9 3.9 0 0 0-.2-.39c-.58-1.012-.914-1.642-1.16-2.08.315-.24 1.679-1.755 2.24-1.781zm13.394.01c.562.027 1.926 1.543 2.24 1.783-.246.438-.58 1.068-1.16 2.08a4.428 4.428 0 0 0-.163.309 32.354 32.354 0 0 0-.562-2.49 40.579 40.579 0 0 0-.482-1.652.216.216 0 0 1 .127-.03z"/>
<g fill="#f0f6fc" opacity="0.9" transform="translate(85 75.5) scale(0.00610)"><use href="#r22" x="0"/><use href="#r2p" x="1169"/><use href="#r3a" x="2289"/><use href="#r2p" x="3430"/></g>
<rect x="130.5" y="57.5" width="44" height="27" rx="6.5" fill="#f0f6fc" fill-opacity="0.035" stroke="#3d444d"/>
<g fill="#f0f6fc" opacity="0.9" transform="translate(140 75.5) scale(0.00610)"><use href="#r2b" x="0"/><use href="#r29" x="1314"/><use href="#r24" x="2880"/></g>
<g fill="#9198a1" transform="translate(0 116) scale(0.00586)"><use href="#r1u" x="0"/><use href="#r2p" x="1340"/><use href="#r2r" x="2490"/><use href="#r2z" x="3660"/><use href="#r2t" x="4738"/><use href="#r32" x="5932"/><use href="#r2s" x="7142"/><use href="#r2p" x="8972"/><use href="#r32" x="10122"/><use href="#r2s" x="11332"/><use href="#r2s" x="13162"/><use href="#r2p" x="14416"/><use href="#r38" x="15566"/><use href="#r2p" x="16246"/></g>
<rect x="0.5" y="127.5" width="83" height="27" rx="6.5" fill="#f0f6fc" fill-opacity="0.035" stroke="#3d444d"/>
<path fill="#a48cf2" transform="translate(10 134.5) scale(0.5417)" d="M12 .0387C5.3729.0384.0003 5.3931 0 11.9988c-.001 6.6066 5.372 11.9628 12 11.9625 6.628.0003 12.001-5.3559 12-11.9625-.0003-6.6057-5.3729-11.9604-12-11.96m-.829 5.4153h7.55l-7.5805 5.3284h5.1828L5.279 18.5436q2.9466-6.5444 5.892-13.0896"/>
<g fill="#f0f6fc" opacity="0.9" transform="translate(29 145.5) scale(0.00610)"><use href="#r1y" x="0"/><use href="#r2p" x="1159"/><use href="#r37" x="2309"/><use href="#r38" x="3390"/><use href="#r1t" x="4060"/><use href="#r28" x="5473"/><use href="#r21" x="6781"/></g>
<rect x="91.5" y="127.5" width="109" height="27" rx="6.5" fill="#f0f6fc" fill-opacity="0.035" stroke="#3d444d"/>
<path fill="#a48cf2" transform="translate(101 134.5) scale(0.5417)" d="M23.5594 14.7228a.5269.5269 0 0 0-.0563-.1191c-.139-.2632-.4768-.3418-1.0074-.2321-1.6533.3411-2.2935.1312-2.5256-.0191 1.342-2.0482 2.445-4.522 3.0411-6.8297.2714-1.0507.7982-3.5237.1222-4.7316a1.5641 1.5641 0 0 0-.1509-.235C21.6931.9086 19.8007.0248 17.5099.0005c-1.4947-.0158-2.7705.3461-3.1161.4794a9.449 9.449 0 0 0-.5159-.0816 8.044 8.044 0 0 0-1.3114-.1278c-1.1822-.0184-2.2038.2642-3.0498.8406-.8573-.3211-4.7888-1.645-7.2219.0788C.9359 2.1526.3086 3.8733.4302 6.3043c.0409.818.5069 3.334 1.2423 5.7436.4598 1.5065.9387 2.7019 1.4334 3.582.553.9942 1.1259 1.5933 1.7143 1.7895.4474.1491 1.1327.1441 1.8581-.7279.8012-.9635 1.5903-1.8258 1.9446-2.2069.4351.2355.9064.3625 1.39.3772a.0569.0569 0 0 0 .0004.0041 11.0312 11.0312 0 0 0-.2472.3054c-.3389.4302-.4094.5197-1.5002.7443-.3102.064-1.1344.2339-1.1464.8115-.0025.1224.0329.2309.0919.3268.2269.4231.9216.6097 1.015.6331 1.3345.3335 2.5044.092 3.3714-.6787-.017 2.231.0775 4.4174.3454 5.0874.2212.5529.7618 1.9045 2.4692 1.9043.2505 0 .5263-.0291.8296-.0941 1.7819-.3821 2.5557-1.1696 2.855-2.9059.1503-.8707.4016-2.8753.5388-4.1012.0169-.0703.0357-.1207.057-.1362.0007-.0005.0697-.0471.4272.0307a.3673.3673 0 0 0 .0443.0068l.2539.0223.0149.001c.8468.0384 1.9114-.1426 2.5312-.4308.6438-.2988 1.8057-1.0323 1.5951-1.6698zM2.371 11.8765c-.7435-2.4358-1.1779-4.8851-1.2123-5.5719-.1086-2.1714.4171-3.6829 1.5623-4.4927 1.8367-1.2986 4.8398-.5408 6.108-.13-.0032.0032-.0066.0061-.0098.0094-2.0238 2.044-1.9758 5.536-1.9708 5.7495-.0002.0823.0066.1989.0162.3593.0348.5873.0996 1.6804-.0735 2.9184-.1609 1.1504.1937 2.2764.9728 3.0892.0806.0841.1648.1631.2518.2374-.3468.3714-1.1004 1.1926-1.9025 2.1576-.5677.6825-.9597.5517-1.0886.5087-.3919-.1307-.813-.5871-1.2381-1.3223-.4796-.839-.9635-2.0317-1.4155-3.5126zm6.0072 5.0871c-.1711-.0428-.3271-.1132-.4322-.1772.0889-.0394.2374-.0902.4833-.1409 1.2833-.2641 1.4815-.4506 1.9143-1.0002.0992-.126.2116-.2687.3673-.4426a.3549.3549 0 0 0 .0737-.1298c.1708-.1513.2724-.1099.4369-.0417.156.0646.3078.26.3695.4752.0291.1016.0619.2945-.0452.4444-.9043 1.2658-2.2216 1.2494-3.1676 1.0128zm2.094-3.988-.0525.141c-.133.3566-.2567.6881-.3334 1.003-.6674-.0021-1.3168-.2872-1.8105-.8024-.6279-.6551-.9131-1.5664-.7825-2.5004.1828-1.3079.1153-2.4468.079-3.0586-.005-.0857-.0095-.1607-.0122-.2199.2957-.2621 1.6659-.9962 2.6429-.7724.4459.1022.7176.4057.8305.928.5846 2.7038.0774 3.8307-.3302 4.7363-.084.1866-.1633.3629-.2311.5454zm7.3637 4.5725c-.0169.1768-.0358.376-.0618.5959l-.146.4383a.3547.3547 0 0 0-.0182.1077c-.0059.4747-.054.6489-.115.8693-.0634.2292-.1353.4891-.1794 1.0575-.11 1.4143-.8782 2.2267-2.4172 2.5565-1.5155.3251-1.7843-.4968-2.0212-1.2217a6.5824 6.5824 0 0 0-.0769-.2266c-.2154-.5858-.1911-1.4119-.1574-2.5551.0165-.5612-.0249-1.9013-.3302-2.6462.0044-.2932.0106-.5909.019-.8918a.3529.3529 0 0 0-.0153-.1126 1.4927 1.4927 0 0 0-.0439-.208c-.1226-.4283-.4213-.7866-.7797-.9351-.1424-.059-.4038-.1672-.7178-.0869.067-.276.1831-.5875.309-.9249l.0529-.142c.0595-.16.134-.3257.213-.5012.4265-.9476 1.0106-2.2453.3766-5.1772-.2374-1.0981-1.0304-1.6343-2.2324-1.5098-.7207.0746-1.3799.3654-1.7088.5321a5.6716 5.6716 0 0 0-.1958.1041c.0918-1.1064.4386-3.1741 1.7357-4.4823a4.0306 4.0306 0 0 1 .3033-.276.3532.3532 0 0 0 .1447-.0644c.7524-.5706 1.6945-.8506 2.802-.8325.4091.0067.8017.0339 1.1742.081 1.939.3544 3.2439 1.4468 4.0359 2.3827.8143.9623 1.2552 1.9315 1.4312 2.4543-1.3232-.1346-2.2234.1268-2.6797.779-.9926 1.4189.543 4.1729 1.2811 5.4964.1353.2426.2522.4522.2889.5413.2403.5825.5515.9713.7787 1.2552.0696.087.1372.1714.1885.245-.4008.1155-1.1208.3825-1.0552 1.717-.0123.1563-.0423.4469-.0834.8148-.0461.2077-.0702.4603-.0994.7662zm.8905-1.6211c-.0405-.8316.2691-.9185.5967-1.0105a2.8566 2.8566 0 0 0 .135-.0406 1.202 1.202 0 0 0 .1342.103c.5703.3765 1.5823.4213 3.0068.1344-.2016.1769-.5189.3994-.9533.6011-.4098.1903-1.0957.333-1.7473.3636-.7197.0336-1.0859-.0807-1.1721-.151zm.5695-9.2712c-.0059.3508-.0542.6692-.1054 1.0017-.055.3576-.112.7274-.1264 1.1762-.0142.4368.0404.8909.0932 1.3301.1066.887.216 1.8003-.2075 2.7014a3.5272 3.5272 0 0 1-.1876-.3856c-.0527-.1276-.1669-.3326-.3251-.6162-.6156-1.1041-2.0574-3.6896-1.3193-4.7446.3795-.5427 1.3408-.5661 2.1781-.463zm.2284 7.0137a12.3762 12.3762 0 0 0-.0853-.1074l-.0355-.0444c.7262-1.1995.5842-2.3862.4578-3.4385-.0519-.4318-.1009-.8396-.0885-1.2226.0129-.4061.0666-.7543.1185-1.0911.0639-.415.1288-.8443.1109-1.3505.0134-.0531.0188-.1158.0118-.1902-.0457-.4855-.5999-1.938-1.7294-3.253-.6076-.7073-1.4896-1.4972-2.6889-2.0395.5251-.1066 1.2328-.2035 2.0244-.1859 2.0515.0456 3.6746.8135 4.8242 2.2824a.908.908 0 0 1 .0667.1002c.7231 1.3556-.2762 6.2751-2.9867 10.5405zm-8.8166-6.1162c-.025.1794-.3089.4225-.6211.4225a.5821.5821 0 0 1-.0809-.0056c-.1873-.026-.3765-.144-.5059-.3156-.0458-.0605-.1203-.178-.1055-.2844.0055-.0401.0261-.0985.0925-.1488.1182-.0894.3518-.1226.6096-.0867.3163.0441.6426.1938.6113.4186zm7.9305-.4114c.0111.0792-.049.201-.1531.3102-.0683.0717-.212.1961-.4079.2232a.5456.5456 0 0 1-.075.0052c-.2935 0-.5414-.2344-.5607-.3717-.024-.1765.2641-.3106.5611-.352.297-.0414.6111.0088.6356.1851z"/>
<g fill="#f0f6fc" opacity="0.9" transform="translate(120 145.5) scale(0.00610)"><use href="#r28" x="0"/><use href="#r33" x="1297"/><use href="#r37" x="2525"/><use href="#r38" x="3606"/><use href="#r2v" x="4256"/><use href="#r36" x="5512"/><use href="#r2t" x="6249"/><use href="#r2b" x="7443"/><use href="#r29" x="8757"/><use href="#r24" x="10323"/></g>
<rect x="208.5" y="127.5" width="97" height="27" rx="6.5" fill="#f0f6fc" fill-opacity="0.035" stroke="#3d444d"/>
<path fill="#a48cf2" transform="translate(218 134.5) scale(0.5417)" d="M11.9 1.036c-.015-.986-1.26-1.41-1.874-.637L.764 12.05C-.33 13.427.65 15.455 2.409 15.455h9.579l.113 7.51c.014.985 1.259 1.408 1.873.636l9.262-11.653c1.093-1.375.113-3.403-1.645-3.403h-9.642z"/>
<g fill="#f0f6fc" opacity="0.9" transform="translate(237 145.5) scale(0.00610)"><use href="#r2b" x="0"/><use href="#r39" x="1314"/><use href="#r34" x="2525"/><use href="#r2p" x="3799"/><use href="#r2q" x="4949"/><use href="#r2p" x="6223"/><use href="#r37" x="7373"/><use href="#r2t" x="8454"/></g>
<rect x="313.5" y="127.5" width="81" height="27" rx="6.5" fill="#f0f6fc" fill-opacity="0.035" stroke="#3d444d"/>
<path fill="#a48cf2" transform="translate(323 134.5) scale(0.5417)" d="M13.983 11.078h2.119a.186.186 0 00.186-.185V9.006a.186.186 0 00-.186-.186h-2.119a.185.185 0 00-.185.185v1.888c0 .102.083.185.185.185m-2.954-5.43h2.118a.186.186 0 00.186-.186V3.574a.186.186 0 00-.186-.185h-2.118a.185.185 0 00-.185.185v1.888c0 .102.082.185.185.185m0 2.716h2.118a.187.187 0 00.186-.186V6.29a.186.186 0 00-.186-.185h-2.118a.185.185 0 00-.185.185v1.887c0 .102.082.185.185.186m-2.93 0h2.12a.186.186 0 00.184-.186V6.29a.185.185 0 00-.185-.185H8.1a.185.185 0 00-.185.185v1.887c0 .102.083.185.185.186m-2.964 0h2.119a.186.186 0 00.185-.186V6.29a.185.185 0 00-.185-.185H5.136a.186.186 0 00-.186.185v1.887c0 .102.084.185.186.186m5.893 2.715h2.118a.186.186 0 00.186-.185V9.006a.186.186 0 00-.186-.186h-2.118a.185.185 0 00-.185.185v1.888c0 .102.082.185.185.185m-2.93 0h2.12a.185.185 0 00.184-.185V9.006a.185.185 0 00-.184-.186h-2.12a.185.185 0 00-.184.185v1.888c0 .102.083.185.185.185m-2.964 0h2.119a.185.185 0 00.185-.185V9.006a.185.185 0 00-.184-.186h-2.12a.186.186 0 00-.186.186v1.887c0 .102.084.185.186.185m-2.92 0h2.12a.185.185 0 00.184-.185V9.006a.185.185 0 00-.184-.186h-2.12a.185.185 0 00-.184.185v1.888c0 .102.082.185.185.185M23.763 9.89c-.065-.051-.672-.51-1.954-.51-.338.001-.676.03-1.01.087-.248-1.7-1.653-2.53-1.716-2.566l-.344-.199-.226.327c-.284.438-.49.922-.612 1.43-.23.97-.09 1.882.403 2.661-.595.332-1.55.413-1.744.42H.751a.751.751 0 00-.75.748 11.376 11.376 0 00.692 4.062c.545 1.428 1.355 2.48 2.41 3.124 1.18.723 3.1 1.137 5.275 1.137.983.003 1.963-.086 2.93-.266a12.248 12.248 0 003.823-1.389c.98-.567 1.86-1.288 2.61-2.136 1.252-1.418 1.998-2.997 2.553-4.4h.221c1.372 0 2.215-.549 2.68-1.009.309-.293.55-.65.707-1.046l.098-.288Z"/>
<g fill="#f0f6fc" opacity="0.9" transform="translate(342 145.5) scale(0.00610)"><use href="#r1w" x="0"/><use href="#r33" x="1478"/><use href="#r2r" x="2706"/><use href="#r2z" x="3876"/><use href="#r2t" x="4954"/><use href="#r36" x="6148"/></g>
<rect x="0.5" y="162.5" width="84" height="27" rx="6.5" fill="#f0f6fc" fill-opacity="0.035" stroke="#3d444d"/>
<path fill="#a48cf2" transform="translate(10 169.5) scale(0.5417)" d="M11.998,24c-0.321,0-0.641-0.084-0.922-0.247l-2.936-1.737c-0.438-0.245-0.224-0.332-0.08-0.383 c0.585-0.203,0.703-0.25,1.328-0.604c0.065-0.037,0.151-0.023,0.218,0.017l2.256,1.339c0.082,0.045,0.197,0.045,0.272,0l8.795-5.076 c0.082-0.047,0.134-0.141,0.134-0.238V6.921c0-0.099-0.053-0.192-0.137-0.242l-8.791-5.072c-0.081-0.047-0.189-0.047-0.271,0 L3.075,6.68C2.99,6.729,2.936,6.825,2.936,6.921v10.15c0,0.097,0.054,0.189,0.139,0.235l2.409,1.392 c1.307,0.654,2.108-0.116,2.108-0.89V7.787c0-0.142,0.114-0.253,0.256-0.253h1.115c0.139,0,0.255,0.112,0.255,0.253v10.021 c0,1.745-0.95,2.745-2.604,2.745c-0.508,0-0.909,0-2.026-0.551L2.28,18.675c-0.57-0.329-0.922-0.945-0.922-1.604V6.921 c0-0.659,0.353-1.275,0.922-1.603l8.795-5.082c0.557-0.315,1.296-0.315,1.848,0l8.794,5.082c0.57,0.329,0.924,0.944,0.924,1.603 v10.15c0,0.659-0.354,1.273-0.924,1.604l-8.794,5.078C12.643,23.916,12.324,24,11.998,24z M19.099,13.993 c0-1.9-1.284-2.406-3.987-2.763c-2.731-0.361-3.009-0.548-3.009-1.187c0-0.528,0.235-1.233,2.258-1.233 c1.807,0,2.473,0.389,2.747,1.607c0.024,0.115,0.129,0.199,0.247,0.199h1.141c0.071,0,0.138-0.031,0.186-0.081 c0.048-0.054,0.074-0.123,0.067-0.196c-0.177-2.098-1.571-3.076-4.388-3.076c-2.508,0-4.004,1.058-4.004,2.833 c0,1.925,1.488,2.457,3.895,2.695c2.88,0.282,3.103,0.703,3.103,1.269c0,0.983-0.789,1.402-2.642,1.402 c-2.327,0-2.839-0.584-3.011-1.742c-0.02-0.124-0.126-0.215-0.253-0.215h-1.137c-0.141,0-0.254,0.112-0.254,0.253 c0,1.482,0.806,3.248,4.655,3.248C17.501,17.007,19.099,15.91,19.099,13.993z"/>
<g fill="#f0f6fc" opacity="0.9" transform="translate(29 180.5) scale(0.00610)"><use href="#r26" x="0"/><use href="#r33" x="1543"/><use href="#r2s" x="2771"/><use href="#r2t" x="4025"/><use href="#r1a" x="5219"/><use href="#r2y" x="5809"/><use href="#r37" x="6305"/></g>
</svg>
